<svg width="32" height="32" viewBox="0 0 32 32" fill="none" xmlns="http://www.w3.org/2000/svg">
<g clip-path="url(#clip0_15_1146)">
<path d="M24.0001 16C19.5814 16 16.0001 19.5813 16.0001 24C16.0001 28.4187 19.5814 32 24.0001 32C28.4188 32 32.0001 28.4187 32.0001 24C32.0001 19.5813 28.4188 16 24.0001 16ZM28.4014 26.58C28.1974 28.02 26.9241 29.0667 25.4694 29.0667H25.0961V29.6107C25.0961 30.1933 24.6254 30.6667 24.0428 30.6667H24.0161C23.4348 30.6667 22.9641 30.192 22.9641 29.6107V29.0667H22.6974C21.7494 29.0667 20.9001 28.6333 20.3374 27.956C19.7801 27.284 20.2534 26.268 21.1268 26.268C21.4294 26.268 21.8068 26.4107 22.0121 26.6333C22.1828 26.8187 22.4281 26.9347 22.6988 26.9347H25.5028C25.8734 26.9347 26.2121 26.6853 26.2841 26.3213C26.3681 25.8973 26.0894 25.5013 25.6828 25.4187L21.9614 24.6733C20.4788 24.376 19.4441 22.9653 19.6614 21.4213C19.8641 19.9813 21.1388 18.9333 22.5934 18.9333H22.9668V18.4C22.9668 17.8107 23.4441 17.3333 24.0334 17.3333C24.6228 17.3333 25.1001 17.8107 25.1001 18.4V18.9333H25.3668C26.3148 18.9333 27.1641 19.3653 27.7268 20.044C28.2841 20.716 27.8108 21.732 26.9374 21.732C26.6348 21.732 26.2574 21.5893 26.0521 21.3667C25.8814 21.1813 25.6361 21.0653 25.3654 21.0653H22.5628C22.1921 21.0653 21.8534 21.3133 21.7801 21.676C21.6948 22.1 21.9748 22.4987 22.3788 22.58L26.1014 23.3253C27.5841 23.6213 28.6201 25.0347 28.4014 26.5773V26.58ZM32.0001 2.66667V8C32.0001 8.736 31.4041 9.33333 30.6668 9.33333C29.9294 9.33333 29.3334 8.736 29.3334 8V4.552L23.9174 9.968C22.1254 11.76 19.2094 11.7613 17.4174 9.968L14.0321 6.584C13.2801 5.832 12.0548 5.832 11.3014 6.584L2.27609 15.6093C2.01609 15.8693 1.67476 16 1.33342 16C0.992089 16 0.650756 15.8693 0.390756 15.6093C-0.130577 15.088 -0.130577 14.2453 0.390756 13.724L9.41609 4.69867C11.2081 2.90533 14.1254 2.90533 15.9174 4.69867L19.3028 8.08267C20.0561 8.83733 21.2814 8.83333 22.0321 8.08267L27.4481 2.66667H24.0001C23.2628 2.66667 22.6668 2.06933 22.6668 1.33333C22.6668 0.597333 23.2628 0 24.0001 0H29.3334C30.8041 0 32.0001 1.196 32.0001 2.66667ZM4.00009 20V30.6667C4.00009 31.404 3.40276 32 2.66676 32C1.93076 32 1.33342 31.404 1.33342 30.6667V20C1.33342 19.2627 1.93076 18.6667 2.66676 18.6667C3.40276 18.6667 4.00009 19.2627 4.00009 20ZM10.6668 14V30.6667C10.6668 31.404 10.0694 32 9.33342 32C8.59742 32 8.00009 31.404 8.00009 30.6667V14C8.00009 13.264 8.59742 12.6667 9.33342 12.6667C10.0694 12.6667 10.6668 13.264 10.6668 14ZM16.0001 17.3333C15.2641 17.3333 14.6668 16.736 14.6668 16V13.3333C14.6668 12.5973 15.2641 12 16.0001 12C16.7361 12 17.3334 12.5973 17.3334 13.3333V16C17.3334 16.736 16.7361 17.3333 16.0001 17.3333Z" fill="#CE7D32"/>
</g>
<defs>
<clipPath id="clip0_15_1146">
<rect width="32" height="32" fill="white"/>
</clipPath>
</defs>
</svg>
