<svg width="32" height="32" viewBox="0 0 32 32" fill="none" xmlns="http://www.w3.org/2000/svg">
<g clip-path="url(#clip0_15_1158)">
<path d="M12.0002 26.6664H9.33087C9.33087 26.7331 9.33354 27.0797 9.33354 27.0797C9.33354 28.3224 10.3442 29.3331 11.5869 29.3331H13.3335C14.0695 29.3331 14.6669 29.9304 14.6669 30.6664C14.6669 31.4024 14.0695 31.9997 13.3335 31.9997H11.5869C8.87354 31.9997 6.66687 29.7931 6.66687 27.0797V26.8651C6.66687 24.6437 5.65754 22.4811 3.82421 20.7757C0.958874 18.1104 -0.397126 14.3384 0.100207 10.4291C0.786874 5.04241 5.20554 0.689079 10.6082 0.0784126C16.5429 -0.593587 22.1415 3.24375 23.6229 9.00108C23.8069 9.71441 23.3762 10.4411 22.6629 10.6237C21.9602 10.8091 21.2229 10.3797 21.0389 9.66508C19.8695 5.11441 15.6042 2.19841 10.9069 2.72775C6.71087 3.20108 3.27887 6.58241 2.74554 10.7664C2.35621 13.8131 3.41221 16.7504 5.63887 18.8237C7.23887 20.3131 8.35621 22.0917 8.91621 23.9984H10.6655V14.4357C9.11354 13.8851 7.99887 12.4037 7.99887 10.6651C7.99887 9.92908 8.59621 9.33175 9.33221 9.33175C10.0682 9.33175 10.6655 9.92908 10.6655 10.6651C10.6655 11.4011 11.2642 11.9984 11.9989 11.9984C12.7335 11.9984 13.3322 11.3997 13.3322 10.6651C13.3322 9.93041 13.9295 9.33175 14.6655 9.33175C15.4015 9.33175 15.9989 9.92908 15.9989 10.6651C15.9989 12.4037 14.8842 13.8851 13.3322 14.4357V25.3317C13.3322 26.0677 12.7349 26.6651 11.9989 26.6651L12.0002 26.6664ZM31.4162 27.3331C31.1682 27.7611 30.7215 27.9997 30.2602 27.9997C30.0335 27.9997 29.8042 27.9424 29.5949 27.8211L28.3202 27.0851C27.3789 28.1451 26.1069 28.9051 24.6669 29.1984V30.6664C24.6669 31.4024 24.0709 31.9997 23.3335 31.9997C22.5962 31.9997 22.0002 31.4024 22.0002 30.6664V29.1984C20.5602 28.9051 19.2869 28.1451 18.3469 27.0851L17.0722 27.8211C16.8615 27.9424 16.6322 27.9997 16.4069 27.9997C15.9455 27.9997 15.4975 27.7611 15.2509 27.3331C14.8829 26.6944 15.1015 25.8797 15.7389 25.5117L17.0095 24.7784C16.7869 24.1144 16.6669 23.4051 16.6669 22.6677C16.6669 21.9304 16.7882 21.2197 17.0095 20.5571L15.7389 19.8237C15.1015 19.4557 14.8829 18.6397 15.2509 18.0024C15.6189 17.3651 16.4322 17.1451 17.0722 17.5144L18.3469 18.2504C19.2882 17.1904 20.5602 16.4304 22.0002 16.1371V14.6691C22.0002 13.9331 22.5962 13.3357 23.3335 13.3357C24.0709 13.3357 24.6669 13.9331 24.6669 14.6691V16.1371C26.1069 16.4304 27.3802 17.1904 28.3202 18.2504L29.5949 17.5144C30.2309 17.1464 31.0469 17.3651 31.4162 18.0024C31.7842 18.6411 31.5655 19.4557 30.9282 19.8237L29.6575 20.5571C29.8802 21.2211 30.0002 21.9304 30.0002 22.6677C30.0002 23.4051 29.8789 24.1157 29.6575 24.7784L30.9282 25.5117C31.5669 25.8797 31.7855 26.6957 31.4162 27.3331ZM27.3335 22.6664C27.3335 20.4611 25.5389 18.6664 23.3335 18.6664C21.1282 18.6664 19.3335 20.4611 19.3335 22.6664C19.3335 24.8717 21.1282 26.6664 23.3335 26.6664C25.5389 26.6664 27.3335 24.8717 27.3335 22.6664Z" fill="#078E3F"/>
</g>
<defs>
<clipPath id="clip0_15_1158">
<rect width="32" height="32" fill="white"/>
</clipPath>
</defs>
</svg>
