<svg width="32" height="32" viewBox="0 0 32 32" fill="none" xmlns="http://www.w3.org/2000/svg">
<g clip-path="url(#clip0_15_1167)">
<path d="M14.9867 32.0001C14.5498 31.9985 14.1186 31.9021 13.7227 31.7174C13.076 31.4294 12.5567 30.9154 12.2621 30.2717C11.9675 29.6281 11.9179 28.899 12.1227 28.2214L14.204 21.3334H9.3C8.6752 21.3342 8.05892 21.1885 7.50054 20.9082C6.94216 20.6279 6.4572 20.2207 6.08455 19.7192C5.7119 19.2177 5.4619 18.6359 5.3546 18.0203C5.2473 17.4048 5.28568 16.7727 5.46666 16.1747L9.49866 2.8414C9.74444 2.01671 10.251 1.29397 10.9425 0.781653C11.6339 0.26934 12.4728 -0.00490884 13.3333 6.65191e-05H18.2573C18.817 0.000534709 19.3682 0.136501 19.8639 0.396346C20.3596 0.656191 20.785 1.03219 21.1038 1.49221C21.4226 1.95222 21.6253 2.48258 21.6945 3.03795C21.7637 3.59333 21.6974 4.15721 21.5013 4.6814L19.2573 10.6667H22.6667C23.3934 10.6667 24.1064 10.8646 24.7291 11.2393C25.3519 11.6139 25.8607 12.1512 26.2011 12.7933C26.5415 13.4354 26.7005 14.1581 26.6611 14.8837C26.6217 15.6094 26.3853 16.3106 25.9773 16.9121L17.444 30.6454C17.1802 31.0585 16.8171 31.399 16.3878 31.6356C15.9586 31.8723 15.4768 31.9976 14.9867 32.0001ZM13.3333 2.66673C13.047 2.66645 12.7682 2.75836 12.5381 2.92885C12.3081 3.09935 12.139 3.33937 12.056 3.6134L8.024 16.9467C7.96363 17.146 7.95075 17.3565 7.98638 17.5616C8.02201 17.7667 8.10517 17.9606 8.2292 18.1278C8.35322 18.295 8.51467 18.4308 8.70062 18.5244C8.88656 18.618 9.09183 18.6667 9.3 18.6667H16C16.2082 18.6667 16.4134 18.7155 16.5994 18.8091C16.7853 18.9027 16.9468 19.0385 17.0708 19.2057C17.1948 19.3728 17.278 19.5667 17.3136 19.7718C17.3492 19.9769 17.3364 20.1875 17.276 20.3867L14.68 28.9761C14.668 29.0077 14.6627 29.0414 14.6644 29.0752C14.6661 29.109 14.6749 29.142 14.69 29.1722C14.7052 29.2024 14.7265 29.2291 14.7525 29.2507C14.7786 29.2722 14.8088 29.2882 14.8413 29.2974C14.8708 29.3163 14.9039 29.3288 14.9385 29.3341C14.9731 29.3394 15.0085 29.3375 15.0423 29.3283C15.076 29.3191 15.1075 29.303 15.1347 29.2809C15.1619 29.2588 15.1841 29.2313 15.2 29.2001L23.7333 15.4667C23.8826 15.2643 23.9715 15.0239 23.9899 14.7731C24.0083 14.5223 23.9554 14.2714 23.8373 14.0494C23.7279 13.8331 23.5604 13.6516 23.3537 13.5252C23.1469 13.3987 22.909 13.3323 22.6667 13.3334H17.3333C17.1178 13.3335 16.9055 13.2814 16.7146 13.1816C16.5236 13.0817 16.3597 12.937 16.2369 12.7599C16.1141 12.5829 16.036 12.3787 16.0094 12.1648C15.9828 11.951 16.0084 11.7339 16.084 11.5321L19.004 3.7454C19.0489 3.62468 19.0639 3.4949 19.0479 3.36711C19.0318 3.23933 18.9852 3.1173 18.9119 3.0114C18.8386 2.90551 18.7408 2.81887 18.6268 2.75887C18.5129 2.69886 18.3861 2.66725 18.2573 2.66673H13.3333Z" fill="#8C67C4"/>
</g>
<defs>
<clipPath id="clip0_15_1167">
<rect width="32" height="32" fill="white"/>
</clipPath>
</defs>
</svg>
