<svg width="32" height="32" viewBox="0 0 32 32" fill="none" xmlns="http://www.w3.org/2000/svg">
<g clip-path="url(#clip0_15_1176)">
<path d="M32 14.996C31.8072 11.876 30.7055 8.8807 28.8309 6.37925C26.9563 3.8778 24.3907 1.97961 21.4503 0.918679C18.5099 -0.142251 15.3233 -0.319536 12.2834 0.40868C9.2435 1.1369 6.48313 2.73878 4.34261 5.01684C2.20209 7.29491 0.774997 10.1496 0.237265 13.2289C-0.300466 16.3082 0.0746715 19.4776 1.31643 22.3463C2.55819 25.215 4.61229 27.6576 7.22549 29.373C9.83869 31.0884 12.8968 32.0016 16.0227 32H25.3333C27.1009 31.9983 28.7956 31.2953 30.0454 30.0455C31.2953 28.7956 31.9982 27.1009 32 25.3334V14.996ZM29.3333 25.3334C29.3333 26.3942 28.9119 27.4116 28.1618 28.1618C27.4116 28.9119 26.3942 29.3334 25.3333 29.3334H16.0227C14.1413 29.3325 12.2811 28.9351 10.5636 28.1671C8.84608 27.3991 7.30971 26.2777 6.05468 24.876C4.79358 23.4751 3.84658 21.8206 3.2772 20.0237C2.70782 18.2268 2.52921 16.3289 2.75334 14.4574C3.10726 11.5053 4.43359 8.75494 6.52326 6.63992C8.61293 4.5249 11.3471 3.1655 14.2947 2.77602C14.8697 2.70395 15.4485 2.66744 16.028 2.66669C19.1353 2.65821 22.1464 3.74389 24.5333 5.73335C25.9274 6.89194 27.0716 8.32156 27.8967 9.93553C28.7218 11.5495 29.2106 13.3142 29.3333 15.1227V25.3334Z" fill="#588082"/>
<path d="M10.6667 11.9999H16C16.3536 11.9999 16.6928 11.8594 16.9428 11.6094C17.1929 11.3593 17.3333 11.0202 17.3333 10.6666C17.3333 10.313 17.1929 9.97383 16.9428 9.72378C16.6928 9.47373 16.3536 9.33325 16 9.33325H10.6667C10.3131 9.33325 9.97392 9.47373 9.72387 9.72378C9.47382 9.97383 9.33334 10.313 9.33334 10.6666C9.33334 11.0202 9.47382 11.3593 9.72387 11.6094C9.97392 11.8594 10.3131 11.9999 10.6667 11.9999Z" fill="#588082"/>
<path d="M21.3333 14.6667H10.6667C10.3131 14.6667 9.97392 14.8072 9.72387 15.0573C9.47382 15.3073 9.33334 15.6465 9.33334 16.0001C9.33334 16.3537 9.47382 16.6928 9.72387 16.9429C9.97392 17.1929 10.3131 17.3334 10.6667 17.3334H21.3333C21.687 17.3334 22.0261 17.1929 22.2762 16.9429C22.5262 16.6928 22.6667 16.3537 22.6667 16.0001C22.6667 15.6465 22.5262 15.3073 22.2762 15.0573C22.0261 14.8072 21.687 14.6667 21.3333 14.6667Z" fill="#588082"/>
<path d="M21.3333 20H10.6667C10.3131 20 9.97392 20.1405 9.72387 20.3905C9.47382 20.6406 9.33334 20.9797 9.33334 21.3333C9.33334 21.687 9.47382 22.0261 9.72387 22.2761C9.97392 22.5262 10.3131 22.6667 10.6667 22.6667H21.3333C21.687 22.6667 22.0261 22.5262 22.2762 22.2761C22.5262 22.0261 22.6667 21.687 22.6667 21.3333C22.6667 20.9797 22.5262 20.6406 22.2762 20.3905C22.0261 20.1405 21.687 20 21.3333 20Z" fill="#588082"/>
</g>
<defs>
<clipPath id="clip0_15_1176">
<rect width="32" height="32" fill="white"/>
</clipPath>
</defs>
</svg>
