<svg xmlns="http://www.w3.org/2000/svg" xmlns:xlink="http://www.w3.org/1999/xlink" viewBox="0 0 406.12 96.3"><defs><style>.cls-1{fill:#fff;}.cls-2{fill:url(#linear-gradient);}</style><linearGradient id="linear-gradient" x1="0.66" y1="0.97" x2="114.48" y2="94.45" gradientUnits="userSpaceOnUse"><stop offset="0.07" stop-color="#fcb94d"/><stop offset="0.16" stop-color="#f7b84d"/><stop offset="0.27" stop-color="#e7b64d"/><stop offset="0.39" stop-color="#ceb34c"/><stop offset="0.52" stop-color="#aaae4c"/><stop offset="0.66" stop-color="#7ca84b"/><stop offset="0.8" stop-color="#44a04b"/><stop offset="0.95" stop-color="#04974a"/><stop offset="0.96" stop-color="#00974a"/></linearGradient></defs><g id="Layer_2" data-name="Layer 2"><g id="Layer_1-2" data-name="Layer 1"><path class="cls-1" d="M173.33,36.05h-6.79V20.19H147.79V36.05H141V0h6.8V14.78h18.75V0h6.79Z"/><path class="cls-1" d="M190.06,44.86h-6.13L188.11,36,176,8.76h6.23l8.76,21,9.27-20.86h6.13Z"/><path class="cls-1" d="M214,44.81h-6V13a4.06,4.06,0,0,1,1.54-3.35,5.63,5.63,0,0,1,3.4-.87h9.53c1.75,0,5.41.25,8,3,2.79,2.89,2.89,7.11,2.89,10.1,0,3.6-.21,7.52-2.16,10.3-2.58,3.71-6.8,3.91-9.58,3.91H214Zm6.85-13.39A5.65,5.65,0,0,0,226,28.89c.57-.82,1.14-2.47,1.14-6.54,0-3.71-.42-5.15-.72-5.87a5.45,5.45,0,0,0-5.26-3.09h-5.92a1.69,1.69,0,0,0-.82.36,1.27,1.27,0,0,0-.42.93V31.42Z"/><path class="cls-1" d="M247.06,36.05c-2.78,0-6.08-.26-8.34-3.45-1.8-2.57-2-6.33-2-9.94,0-5.1.26-8.86,3.25-11.43s7.62-2.58,10.19-2.58c3.2,0,6.49.16,9,1.75,3.19,2,3.86,5.41,3.86,8.86a5.59,5.59,0,0,1-1.29,4.12,3.86,3.86,0,0,1-2.93,1H243a20.24,20.24,0,0,0,.36,3.76c.78,2.94,3.3,3.25,5.51,3.25H262.2v4.63Zm8.45-16.27c1.18,0,1.34-.88,1.34-1.6a4.65,4.65,0,0,0-1.75-3.66A8.37,8.37,0,0,0,250,13.29c-1.6,0-4.07,0-5.72,1.8C243,16.48,243.05,18,243,19.78Z"/><path class="cls-1" d="M267.24,19.06c0-3,.52-5.93,2.84-7.94,2.52-2.21,6.07-2.36,8.19-2.36h4.06v4.63h-2.52a6.39,6.39,0,0,0-5.15,1.91c-1.13,1.39-1.39,3.29-1.39,5.35v15.4h-6Z"/><path class="cls-1" d="M284.8,31.42h15.35a2.52,2.52,0,0,0,2-.78,2.4,2.4,0,0,0,.51-1.7,2.52,2.52,0,0,0-.77-2.05c-.41-.37-1.13-.73-4.94-1.76l-5.26-1.44c-2.88-.77-4.89-1.8-6-3.3a7.85,7.85,0,0,1-1.29-4.63,7.9,7.9,0,0,1,1.29-4.64c1.6-2.21,4.22-2.36,6.54-2.36h15.4v4.63H293.2a3.26,3.26,0,0,0-2.11.51,2.16,2.16,0,0,0-.78,2,2.3,2.3,0,0,0,.88,2.11,12.21,12.21,0,0,0,3.4,1.39L300.46,21c3.24.93,5.46,1.65,6.8,3.09a7.24,7.24,0,0,1,1.65,5c0,3.3-1.24,5-2.27,5.82a7.17,7.17,0,0,1-4.38,1.13H284.8Z"/><path class="cls-1" d="M323,36.05c-2.06,0-5.67-.41-8.14-3.35-2.26-2.67-2.47-6.07-2.47-9.94,0-3.24,0-7.93,3.09-11.07,1.13-1.13,3.45-2.93,8.34-2.93h11.69v4.63h-9.73c-4.07,0-6,2-6.7,4.33a25,25,0,0,0-.46,5.15,15,15,0,0,0,.88,5.66c1.34,2.63,4.32,2.89,6.85,2.89h9.78v4.63Z"/><path class="cls-1" d="M357.05,8.76a7.93,7.93,0,0,1,5.66,2.11c1.14,1.18,2,3.4,2,6.43V31.47a4.94,4.94,0,0,1-1.08,3.5,5.16,5.16,0,0,1-3.76,1.08h-13a7.08,7.08,0,0,1-5-1.34c-2.21-1.9-2.36-5.4-2.36-7.41,0-2.42.25-4.85,2.31-6.65a7,7,0,0,1,5-1.59H358.7V17.15a3.86,3.86,0,0,0-.78-2.57A3.53,3.53,0,0,0,355,13.39H341.54V8.76Zm-8.4,14.93a2.75,2.75,0,0,0-2.21.93c-.21.26-.67,1-.67,2.93a4.78,4.78,0,0,0,.82,3,3,3,0,0,0,2,.83h8.39a2.2,2.2,0,0,0,1.34-.31A1.25,1.25,0,0,0,358.7,30V23.69Z"/><path class="cls-1" d="M369.61,0h6V36.05h-6Z"/><path class="cls-1" d="M390.1,36.05c-2.78,0-6.07-.26-8.34-3.45-1.8-2.57-2-6.33-2-9.94,0-5.1.26-8.86,3.25-11.43s7.62-2.58,10.19-2.58c3.2,0,6.49.16,9,1.75,3.19,2,3.86,5.41,3.86,8.86a5.55,5.55,0,0,1-1.29,4.12,3.86,3.86,0,0,1-2.93,1H386a20.24,20.24,0,0,0,.36,3.76c.78,2.94,3.3,3.25,5.51,3.25h13.34v4.63Zm8.45-16.27c1.18,0,1.34-.88,1.34-1.6a4.65,4.65,0,0,0-1.75-3.66A8.37,8.37,0,0,0,393,13.29c-1.6,0-4.07,0-5.72,1.8C386,16.48,386.08,18,386,19.78Z"/><path class="cls-1" d="M155.1,87.54c-3.45,0-8.14-.46-11.48-4.22S140,74,140,70c0-5.15.46-10.45,3.5-14,3.61-4.22,9.22-4.53,11.8-4.53h14.47V56.9H158.45c-4,0-7.42.26-9.48,3.35-1.08,1.59-2,4.32-2,9.68s1,7.62,1.7,8.75c1.86,2.84,5.15,3.46,9.43,3.46H170.3v5.4Z"/><path class="cls-1" d="M191.45,60.25a8,8,0,0,1,5.67,2.11c1.13,1.18,2,3.4,2,6.44V83a4.94,4.94,0,0,1-1.08,3.5,5.17,5.17,0,0,1-3.76,1.08h-13a7.1,7.1,0,0,1-4.95-1.33c-2.21-1.91-2.37-5.41-2.37-7.42,0-2.42.26-4.84,2.32-6.65a7,7,0,0,1,5-1.59H193.1V68.64a3.85,3.85,0,0,0-.77-2.57,3.54,3.54,0,0,0-2.94-1.19H176V60.25Zm-8.39,14.93a2.77,2.77,0,0,0-2.22.93,4.62,4.62,0,0,0-.66,2.94,4.77,4.77,0,0,0,.82,3,2.93,2.93,0,0,0,2,.83h8.39a2.21,2.21,0,0,0,1.34-.31,1.27,1.27,0,0,0,.41-1.13V75.18Z"/><path class="cls-1" d="M210,96.3h-6V64.47a4.07,4.07,0,0,1,1.55-3.35,5.63,5.63,0,0,1,3.4-.87h9.53c1.75,0,5.4.25,8,3,2.78,2.89,2.89,7.11,2.89,10.1,0,3.6-.21,7.52-2.17,10.3-2.57,3.71-6.8,3.91-9.58,3.91H210Zm6.85-13.39A5.65,5.65,0,0,0,222,80.38c.57-.82,1.13-2.47,1.13-6.54,0-3.7-.41-5.15-.72-5.87a5.42,5.42,0,0,0-5.25-3.09h-5.92a1.76,1.76,0,0,0-.83.36,1.26,1.26,0,0,0-.41.93V82.91Z"/><path class="cls-1" d="M233.57,56.28V51.49h6v4.79Zm0,4h6V87.54h-6Z"/><path class="cls-1" d="M256.23,87.54c-3.66,0-5.62-.61-7.31-2s-2.73-3.45-2.73-6.9V64.88h-3.76V60.25h3.76V51.49h6v8.76h7.62v4.63h-7.62v11c0,1.86-.15,4.43,1.6,5.87,1.34,1.14,3.6,1.19,4.68,1.19H260v4.63Z"/><path class="cls-1" d="M279.61,60.25a7.93,7.93,0,0,1,5.66,2.11c1.13,1.18,2,3.4,2,6.44V83a4.94,4.94,0,0,1-1.08,3.5,5.16,5.16,0,0,1-3.76,1.08h-13a7.1,7.1,0,0,1-5-1.33c-2.21-1.91-2.37-5.41-2.37-7.42,0-2.42.26-4.84,2.32-6.65a7,7,0,0,1,5-1.59h11.84V68.64a3.85,3.85,0,0,0-.77-2.57,3.53,3.53,0,0,0-2.93-1.19H264.1V60.25Zm-8.4,14.93a2.75,2.75,0,0,0-2.21.93c-.21.26-.67,1-.67,2.94a4.77,4.77,0,0,0,.82,3,3,3,0,0,0,2,.83h8.39a2.21,2.21,0,0,0,1.34-.31,1.27,1.27,0,0,0,.41-1.13V75.18Z"/><path class="cls-1" d="M292.17,51.49h6V87.54h-6Z"/><rect class="cls-2" width="116.22" height="96.3"/><polygon points="33.86 24.41 33.86 71.89 41.51 71.89 41.51 87.39 16.85 87.39 16.85 8.9 41.51 8.9 41.51 24.41 33.86 24.41"/><polygon points="99.37 8.9 99.37 87.39 74.71 87.39 74.71 71.89 82.35 71.89 82.35 53.84 70.59 53.84 70.59 60.13 45.63 60.13 45.63 36.17 70.59 36.17 70.59 42.47 82.35 42.47 82.35 24.41 74.71 24.41 74.71 8.9 99.37 8.9"/></g></g></svg>