<svg width="211" height="50" viewBox="0 0 211 50" fill="none" xmlns="http://www.w3.org/2000/svg">
<g clip-path="url(#clip0_3_7)">
<path d="M89.9948 18.7175H86.4693V10.4829H76.7341V18.7175H73.2087V0H76.7393V7.67393H86.4745V0H90L89.9948 18.7175Z" fill="black"/>
<path d="M98.6813 23.2918H95.4986L97.6689 18.6916L91.3812 4.54834H94.6159L99.1642 15.4518L103.977 4.62103H107.16L98.6813 23.2918Z" fill="black"/>
<path d="M111.111 23.2657H107.996V6.74965C107.983 6.4172 108.048 6.08628 108.187 5.78397C108.326 5.48166 108.535 5.21654 108.796 5.01029C109.321 4.67548 109.939 4.51721 110.561 4.55858H115.509C116.418 4.55858 118.318 4.68838 119.663 6.11621C121.111 7.61673 121.163 9.8078 121.163 11.3602C121.163 13.2294 121.054 15.2647 120.042 16.7081C118.702 18.6344 116.511 18.7382 115.068 18.7382H111.111V23.2657ZM114.668 16.3135C115.19 16.3533 115.714 16.2524 116.184 16.0214C116.654 15.7904 117.054 15.4377 117.342 14.9999C117.638 14.5742 117.934 13.7175 117.934 11.6043C117.934 9.678 117.716 8.93033 117.56 8.5565C117.317 8.0472 116.927 7.6223 116.44 7.3364C115.953 7.05051 115.392 6.91669 114.829 6.95214H111.755C111.599 6.97503 111.452 7.0396 111.329 7.13906C111.262 7.20009 111.207 7.27451 111.17 7.35762C111.132 7.44074 111.112 7.53073 111.111 7.62192V16.3135H114.668Z" fill="black"/>
<path d="M128.276 18.7175C126.833 18.7175 125.119 18.5825 123.946 16.9262C123.011 15.5918 122.908 13.6396 122.908 11.7652C122.908 9.11726 123.043 7.16502 124.595 5.83065C126.148 4.49628 128.551 4.49109 129.886 4.49109C131.547 4.49109 133.256 4.57416 134.559 5.39971C136.215 6.43813 136.563 8.20864 136.563 9.99992C136.599 10.3831 136.558 10.7695 136.443 11.1368C136.328 11.504 136.141 11.8447 135.893 12.1391C135.689 12.3259 135.449 12.4685 135.187 12.5579C134.925 12.6472 134.647 12.6814 134.372 12.6583H126.168C126.17 13.3134 126.232 13.967 126.355 14.6105C126.76 16.137 128.069 16.2979 129.216 16.2979H136.137V18.7019L128.276 18.7175ZM132.664 10.2699C133.276 10.2699 133.359 9.813 133.359 9.43917C133.361 9.07435 133.281 8.71383 133.123 8.3847C132.966 8.05556 132.736 7.76637 132.451 7.53886C131.659 7.04771 130.731 6.82383 129.803 6.90023C128.972 6.90023 127.69 6.90023 126.833 7.83481C126.168 8.55651 126.194 9.34571 126.168 10.2699H132.664Z" fill="black"/>
<path d="M138.754 9.89621C138.754 8.33858 139.024 6.81729 140.228 5.77368C141.537 4.62622 143.38 4.54834 144.481 4.54834H146.589V6.95229H145.28C144.789 6.90838 144.294 6.97461 143.831 7.14616C143.369 7.31772 142.95 7.59027 142.606 7.94398C142.02 8.66568 141.885 9.65218 141.885 10.7218V18.7176H138.769L138.754 9.89621Z" fill="black"/>
<path d="M147.871 16.3137H155.841C156.033 16.3268 156.226 16.2973 156.406 16.2273C156.585 16.1573 156.747 16.0485 156.88 15.9087C157.077 15.6591 157.172 15.3433 157.144 15.026C157.162 14.83 157.135 14.6324 157.066 14.4481C156.997 14.2638 156.887 14.0975 156.745 13.9616C156.532 13.7695 156.158 13.5826 154.18 13.0478L151.449 12.3002C149.953 11.9004 148.91 11.3656 148.333 10.5868C147.864 9.87518 147.63 9.03445 147.664 8.18281C147.631 7.32963 147.865 6.48744 148.333 5.77368C149.164 4.62622 150.525 4.54834 151.729 4.54834H159.725V6.95229H152.233C151.848 6.91281 151.461 7.00626 151.137 7.21708C150.985 7.33985 150.868 7.50027 150.797 7.68242C150.726 7.86457 150.703 8.06213 150.732 8.2555C150.706 8.4621 150.735 8.67189 150.815 8.86406C150.895 9.05623 151.024 9.22411 151.189 9.35104C151.738 9.67925 152.333 9.92257 152.954 10.0727L156.002 10.9035C157.684 11.3863 158.837 11.7602 159.533 12.5078C160.134 13.235 160.44 14.1617 160.39 15.1039C160.39 16.8173 159.746 17.6999 159.211 18.1257C158.536 18.5615 157.738 18.7673 156.937 18.7124H147.871V16.3137Z" fill="black"/>
<path d="M167.705 18.7176C166.636 18.7176 164.761 18.5047 163.479 16.9782C162.305 15.592 162.196 13.8266 162.196 11.8173C162.196 10.135 162.196 7.69995 163.801 6.06963C164.388 5.48292 165.592 4.54834 168.131 4.54834H174.201V6.95229H169.149C167.036 6.95229 166.033 7.99071 165.67 9.20047C165.498 10.0811 165.418 10.9772 165.431 11.8744C165.393 12.8742 165.548 13.872 165.888 14.8131C166.584 16.1787 168.131 16.3137 169.445 16.3137H174.523V18.7176H167.705Z" fill="black"/>
<path d="M185.384 4.54821C186.47 4.51139 187.526 4.90517 188.323 5.64374C188.915 6.25641 189.362 7.40906 189.362 8.98226V16.3395C189.414 16.9947 189.214 17.6452 188.801 18.1567C188.249 18.5926 187.548 18.794 186.849 18.7175H180.099C179.177 18.8215 178.249 18.573 177.503 18.0217C176.355 17.0352 176.277 15.218 176.277 14.1744C176.277 12.9179 176.407 11.6562 177.477 10.7216C178.202 10.1203 179.133 9.82428 180.073 9.89608H186.241V8.90438C186.27 8.42545 186.126 7.95198 185.836 7.57001C185.649 7.35656 185.414 7.18962 185.151 7.08239C184.888 6.97516 184.603 6.93058 184.32 6.95215H177.331V4.54821H185.384ZM181.023 12.3C180.808 12.2886 180.593 12.3262 180.394 12.4098C180.195 12.4934 180.018 12.621 179.876 12.7829C179.766 12.9179 179.528 13.3021 179.528 14.3042C179.492 14.8563 179.642 15.4046 179.953 15.8618C180.234 16.1297 180.604 16.2834 180.992 16.2928H185.348C185.591 16.3148 185.835 16.2584 186.044 16.1318C186.118 16.0613 186.175 15.9743 186.209 15.8777C186.243 15.7812 186.254 15.6778 186.241 15.5762V12.3H181.023Z" fill="black"/>
<path d="M191.906 0H195.021V18.7175H191.906V0Z" fill="black"/>
<path d="M202.544 18.7175C201.101 18.7175 199.393 18.5825 198.214 16.9262C197.28 15.5918 197.176 13.6396 197.176 11.7652C197.176 9.11726 197.311 7.16502 198.863 5.83065C200.416 4.49628 202.82 4.49109 204.154 4.49109C205.815 4.49109 207.524 4.57416 208.827 5.39971C210.483 6.43813 210.831 8.20864 210.831 9.99992C210.868 10.3831 210.828 10.7699 210.713 11.1373C210.598 11.5047 210.41 11.8453 210.161 12.1391C209.957 12.3259 209.717 12.4685 209.455 12.5579C209.193 12.6472 208.916 12.6814 208.64 12.6583H200.416C200.417 13.3134 200.479 13.967 200.602 14.6105C201.007 16.137 202.316 16.2979 203.463 16.2979H210.39V18.7019L202.544 18.7175ZM206.932 10.2699C207.544 10.2699 207.627 9.813 207.627 9.43917C207.629 9.07435 207.549 8.71383 207.391 8.3847C207.234 8.05556 207.004 7.76637 206.719 7.53886C205.922 7.04334 204.985 6.81929 204.05 6.90023C203.219 6.90023 201.937 6.90023 201.08 7.83481C200.416 8.55651 200.457 9.34571 200.416 10.2699H206.932Z" fill="black"/>
<path d="M80.5297 45.4518C78.7384 45.4518 76.3033 45.213 74.5691 43.2607C72.835 41.3085 72.6896 38.4217 72.6896 36.3449C72.6896 33.6709 72.9284 30.9191 74.5068 29.0759C76.3812 26.8848 79.2939 26.7239 80.6335 26.7239H88.1465V29.5432H82.269C80.1922 29.5432 78.4165 29.6782 77.3469 31.2825C76.7861 32.1081 76.3085 33.5255 76.3085 36.3085C76.3085 39.0915 76.8277 40.2649 77.1911 40.8516C78.1569 42.3262 79.8651 42.6481 82.0873 42.6481H88.4217V45.4518H80.5297Z" fill="black"/>
<path d="M99.403 31.2825C100.49 31.2483 101.547 31.6416 102.347 32.3781C102.934 32.9907 103.385 34.1434 103.385 35.7218V43.0946C103.438 43.7498 103.237 44.4003 102.825 44.9118C102.272 45.3472 101.571 45.5486 100.872 45.4726H94.1226C93.2098 45.5704 92.2934 45.3242 91.5525 44.782C90.4051 43.7903 90.322 41.9731 90.322 40.9295C90.322 39.673 90.457 38.4165 91.5266 37.4767C92.2522 36.8754 93.183 36.5794 94.1226 36.6512H100.26V35.6387C100.291 35.1604 100.149 34.6868 99.8599 34.3043C99.6711 34.0897 99.4347 33.9221 99.1697 33.8149C98.9048 33.7076 98.6184 33.6636 98.3334 33.6865H91.3812V31.2825H99.403ZM95.0468 39.0343C94.8308 39.0229 94.6149 39.0604 94.4153 39.144C94.2158 39.2276 94.0376 39.3552 93.8942 39.5172C93.6126 39.9734 93.4919 40.5109 93.5515 41.0437C93.5154 41.5959 93.6653 42.1443 93.9773 42.6013C94.2557 42.8723 94.6272 43.0265 95.0157 43.0323H99.3719C99.615 43.054 99.8587 42.9976 100.068 42.8713C100.149 42.7987 100.211 42.7071 100.248 42.6047C100.285 42.5024 100.296 42.3924 100.28 42.2846V39.0343H95.0468Z" fill="black"/>
<path d="M109.034 50H105.919V33.4735C105.907 33.1407 105.973 32.8096 106.113 32.5074C106.253 32.2051 106.462 31.9402 106.724 31.7342C107.249 31.3994 107.868 31.2411 108.489 31.2825H113.437C114.346 31.2825 116.241 31.4123 117.591 32.8401C119.034 34.3406 119.091 36.5317 119.091 38.0841C119.091 39.9533 118.982 41.9886 117.965 43.432C116.63 45.3583 114.434 45.4621 112.991 45.4621H109.034V50ZM112.591 43.0478C113.113 43.0875 113.637 42.9867 114.107 42.7557C114.577 42.5247 114.977 42.172 115.265 41.7342C115.561 41.3084 115.852 40.4517 115.852 38.3385C115.852 36.4174 115.639 35.6646 115.478 35.2908C115.236 34.781 114.848 34.3555 114.361 34.0694C113.875 33.7833 113.315 33.6499 112.752 33.6864H109.678C109.521 33.7101 109.372 33.7745 109.247 33.8733C109.18 33.9346 109.127 34.0092 109.09 34.0923C109.053 34.1755 109.034 34.2653 109.034 34.3562V43.0478H112.591Z" fill="black"/>
<path d="M121.272 29.2213V26.7343H124.387V29.2213H121.272ZM121.272 31.2981H124.387V45.4518H121.272V31.2981Z" fill="black"/>
<path d="M133.037 45.4518C131.137 45.4518 130.119 45.1351 129.242 44.4134C128.364 43.6917 127.824 42.6221 127.824 40.8308V33.6865H125.872V31.2825H127.824V26.7343H130.94V31.2825H134.896V33.6865H130.94V39.3978C130.94 40.3635 130.862 41.6979 131.77 42.4456C132.466 43.0375 133.64 43.0634 134.2 43.0634H134.995V45.4674L133.037 45.4518Z" fill="black"/>
<path d="M145.177 31.2825C146.262 31.2457 147.319 31.6395 148.115 32.3781C148.702 32.9907 149.154 34.1434 149.154 35.7218V43.0946C149.207 43.7498 149.006 44.4003 148.593 44.9118C148.041 45.3477 147.34 45.5491 146.641 45.4726H139.891C138.97 45.5771 138.043 45.3305 137.295 44.782C136.148 43.7903 136.064 41.9731 136.064 40.9295C136.064 39.673 136.199 38.4165 137.269 37.4767C137.995 36.8754 138.925 36.5794 139.865 36.6512H146.013V35.6387C146.044 35.1604 145.902 34.6868 145.613 34.3043C145.425 34.0901 145.189 33.9228 144.925 33.8155C144.661 33.7082 144.376 33.6641 144.091 33.6865H137.124V31.2825H145.177ZM140.815 39.0343C140.6 39.023 140.385 39.0605 140.186 39.1441C139.987 39.2278 139.81 39.3553 139.668 39.5172C139.559 39.6522 139.32 40.0364 139.32 41.0437C139.284 41.5959 139.434 42.1443 139.746 42.6013C140.026 42.8692 140.396 43.0229 140.784 43.0323H145.14C145.383 43.054 145.627 42.9976 145.836 42.8713C145.917 42.7987 145.979 42.7071 146.016 42.6047C146.053 42.5024 146.065 42.3924 146.049 42.2846V39.0343H140.815Z" fill="black"/>
<path d="M151.698 26.7343H154.813V45.4518H151.698V26.7343Z" fill="black"/>
<path d="M60.3427 0H0V50H60.3427V0Z" fill="url(#paint0_linear_3_7)"/>
<path d="M17.5805 12.674V37.3261H21.5525V45.3739H8.74872V4.62103H21.5525V12.674H17.5805Z" fill="black"/>
<path d="M51.594 4.62103V45.3739H38.7903V37.3261H42.7571V27.9544H36.6511V31.2202H23.6917V18.7799H36.6511V22.0509H42.7571V12.674H38.7903V4.62103H51.594Z" fill="black"/>
</g>
<defs>
<linearGradient id="paint0_linear_3_7" x1="0.342679" y1="0.503634" x2="59.4393" y2="49.0395" gradientUnits="userSpaceOnUse">
<stop offset="0.07" stop-color="#FCB94D"/>
<stop offset="0.16" stop-color="#F7B84D"/>
<stop offset="0.27" stop-color="#E7B64D"/>
<stop offset="0.39" stop-color="#CEB34C"/>
<stop offset="0.52" stop-color="#AAAE4C"/>
<stop offset="0.66" stop-color="#7CA84B"/>
<stop offset="0.8" stop-color="#44A04B"/>
<stop offset="0.95" stop-color="#04974A"/>
<stop offset="0.96" stop-color="#00974A"/>
</linearGradient>
<clipPath id="clip0_3_7">
<rect width="210.862" height="50" fill="white"/>
</clipPath>
</defs>
</svg>
