<svg width="539" height="574" viewBox="0 0 539 574" fill="none" xmlns="http://www.w3.org/2000/svg">
<g clip-path="url(#clip0_7_267)">
<path d="M141.359 109.854L33.4841 300.74C25.9035 314.194 23.6622 330.007 27.2055 345.037C30.7489 360.067 39.8176 373.214 52.6092 381.865L217.86 493.411C224.859 498.129 232.755 501.357 241.056 502.892C249.357 504.427 257.885 504.237 266.109 502.335L490.235 450.415C503.748 447.281 515.804 439.671 524.445 428.821C533.086 417.97 537.805 404.517 537.835 390.646L538.16 202.275C538.187 188.248 533.417 174.634 524.641 163.692C515.864 152.75 503.609 145.139 489.911 142.121L208.105 80.0612C195.256 77.2372 181.84 78.6068 169.827 83.9691C157.814 89.3313 147.837 98.4037 141.359 109.854Z" fill="url(#paint0_radial_7_267)"/>
<path d="M312.898 522.19L430.062 495.216C430.986 495.014 431.943 495.01 432.869 495.203C433.795 495.397 434.67 495.784 435.436 496.339C436.202 496.895 436.842 497.606 437.314 498.426C437.786 499.246 438.079 500.156 438.174 501.098L444.502 565.612C444.614 566.729 444.444 567.857 444.006 568.892C443.568 569.926 442.877 570.834 441.996 571.531C441.115 572.228 440.073 572.692 438.965 572.88C437.858 573.069 436.721 572.975 435.659 572.609L312.391 530.424C311.505 530.12 310.744 529.533 310.223 528.755C309.703 527.976 309.452 527.049 309.51 526.114C309.568 525.179 309.93 524.289 310.542 523.581C311.154 522.872 311.981 522.383 312.898 522.19Z" fill="url(#paint1_radial_7_267)"/>
<path d="M261.505 62.1125L283.814 23.3958C284.584 22.0837 285.029 20.6067 285.113 19.0878C285.197 17.5688 284.916 16.0519 284.295 14.6631C283.674 13.2744 282.731 12.054 281.543 11.1036C280.355 10.1532 278.957 9.50024 277.466 9.19905L238.101 1.14744C236.946 0.912009 235.755 0.919324 234.603 1.16892C233.451 1.41852 232.364 1.90495 231.41 2.5973C230.457 3.28964 229.658 4.17278 229.064 5.19059C228.47 6.2084 228.094 7.33863 227.96 8.50949L222.606 54.649C222.471 55.7739 222.562 56.9144 222.874 58.0035C223.187 59.0925 223.714 60.1082 224.424 60.9906C225.135 61.8731 226.014 62.6046 227.012 63.142C228.009 63.6795 229.104 64.0121 230.232 64.1203L253.332 66.331C254.955 66.4837 256.588 66.1675 258.037 65.4197C259.485 64.6719 260.689 63.5241 261.505 62.1125Z" fill="url(#paint2_radial_7_267)"/>
<path d="M163.932 78.662L136.026 62.4371C131.848 59.9628 126.047 60.267 119.638 63.9785C117.461 65.2354 115.422 66.7172 113.554 68.3998L102.318 61.9098C96.234 57.5696 87.1886 57.7522 77.2306 63.4917C64.636 70.7726 53.6639 85.0708 47.8432 100.221C45.6002 100.371 43.4279 101.067 41.5155 102.249C37.1836 105.074 33.5783 108.88 30.992 113.359C28.4056 117.837 26.911 122.862 26.6291 128.026C26.6291 128.229 26.6291 128.432 26.6291 128.614C23.9402 128.882 21.3469 129.756 19.044 131.17C8.51807 137.234 -5.72205e-06 151.999 -5.72205e-06 164.127C-5.72205e-06 170.211 2.02811 174.389 5.49618 176.295L33.0582 192.297L39.1426 163.336L119.659 117.034C129.941 111.092 138.642 98.3144 141.562 85.801L163.932 78.662Z" fill="url(#paint3_linear_7_267)"/>
<path d="M0.750396 164.796C0.750396 152.627 9.28876 137.883 19.7944 131.819C22.1244 130.4 24.7452 129.526 27.4607 129.263C27.4506 129.067 27.4506 128.871 27.4607 128.675C27.7425 123.511 29.2372 118.486 31.8235 114.007C34.4099 109.529 38.0151 105.723 42.347 102.898C44.2622 101.706 46.4436 101.009 48.695 100.87C54.4954 85.7196 65.4675 71.4011 78.0621 64.1405C88.0201 58.3807 96.9641 58.1981 103.15 62.5383L114.406 69.0485C116.279 67.3661 118.317 65.878 120.49 64.607C126.899 60.9158 132.659 60.5507 136.857 63.0859L163.77 78.7429H164.014L136.107 62.518C131.929 60.0437 126.128 60.3479 119.72 64.0594C117.542 65.3163 115.503 66.7981 113.635 68.4806L102.399 61.9907C96.3151 57.6505 87.2697 57.8331 77.3117 63.5726C64.7171 70.8535 53.745 85.1517 47.9243 100.302C45.6813 100.452 43.509 101.148 41.5966 102.33C37.2647 105.155 33.6595 108.961 31.0731 113.44C28.4868 117.918 26.9921 122.943 26.7103 128.107C26.7103 128.31 26.7103 128.513 26.7103 128.695C23.9999 128.926 21.378 129.773 19.044 131.17C8.51807 137.234 -5.72205e-06 151.998 -5.72205e-06 164.126C-5.72205e-06 169.602 1.74417 173.577 4.60381 175.768C3.24924 174.297 2.20886 172.565 1.54631 170.679C0.883747 168.792 0.612925 166.79 0.750396 164.796Z" fill="white"/>
<path d="M147.302 80.0612C143.484 82.3265 140.06 85.1964 137.161 88.559C132.943 74.9909 120.085 70.7927 104.854 79.5947C92.2589 86.8553 81.2868 101.154 75.4661 116.324C73.2233 116.475 71.0512 117.171 69.1384 118.352C64.8065 121.177 61.2013 124.983 58.6149 129.462C56.0286 133.94 54.5339 138.965 54.2521 144.129C54.2521 144.352 54.2521 144.535 54.2521 144.738C51.5622 144.976 48.9617 145.822 46.6466 147.212C36.1207 153.296 27.6027 168.041 27.6027 180.189C27.6027 192.337 36.1207 197.246 46.6466 191.161L147.302 133.076C159.978 125.755 170.362 107.948 170.362 93.2845C170.362 78.6212 159.978 72.6991 147.302 80.0612Z" fill="url(#paint4_linear_7_267)"/>
<path style="mix-blend-mode:lighten" opacity="0.7" d="M147.302 80.0612C143.484 82.3265 140.06 85.1964 137.161 88.559C132.943 74.9909 120.085 70.7927 104.854 79.5947C92.2589 86.8553 81.2868 101.154 75.4661 116.324C73.2233 116.475 71.0512 117.171 69.1384 118.352C64.8065 121.177 61.2013 124.983 58.6149 129.462C56.0286 133.94 54.5339 138.965 54.2521 144.129C54.2521 144.352 54.2521 144.535 54.2521 144.738C51.5622 144.976 48.9617 145.822 46.6466 147.212C36.1207 153.296 27.6027 168.041 27.6027 180.189C27.6027 192.337 36.1207 197.246 46.6466 191.161L147.302 133.076C159.978 125.755 170.362 107.948 170.362 93.2845C170.362 78.6212 159.978 72.6991 147.302 80.0612Z" fill="url(#paint5_linear_7_267)"/>
<path d="M147.302 80.0612C143.484 82.3265 140.06 85.1964 137.161 88.559C132.943 74.9909 120.085 70.7927 104.854 79.5947C92.2589 86.8553 81.2868 101.154 75.4661 116.324C73.2233 116.475 71.0512 117.171 69.1384 118.352C64.8065 121.177 61.2013 124.983 58.6149 129.462C56.0286 133.94 54.5339 138.965 54.2521 144.129C54.2521 144.352 54.2521 144.535 54.2521 144.738C51.5622 144.976 48.9617 145.822 46.6466 147.212C36.1207 153.296 27.6027 168.041 27.6027 180.189C27.6027 192.337 36.1207 197.246 46.6466 191.161L147.302 133.076C159.978 125.755 170.362 107.948 170.362 93.2845C170.362 78.6212 159.978 72.6991 147.302 80.0612Z" fill="#E2EBEB"/>
<path style="mix-blend-mode:lighten" opacity="0.7" d="M138.439 90.0395C141.337 86.677 144.762 83.8071 148.58 81.5417C156.368 77.0596 163.243 77.4855 167.38 82.0285C163.446 76.2078 155.962 75.0518 147.363 80.0004C143.772 82.1529 140.536 84.8484 137.77 87.9911C137.912 88.6604 138.216 89.3297 138.439 90.0395Z" fill="url(#paint6_linear_7_267)"/>
<path d="M71.0042 190.796L97.0249 175.768V164.228L71.0042 179.256V190.796Z" fill="url(#paint7_linear_7_267)"/>
<path d="M71.0043 179.256L97.025 164.228L71.0043 149.2L44.9836 164.228L71.0043 179.256Z" fill="url(#paint8_linear_7_267)"/>
<path d="M44.9836 175.768L71.0043 190.796V179.256L44.9836 164.228V175.768Z" fill="url(#paint9_linear_7_267)"/>
<path d="M71.0043 178.668L96.5382 163.944L97.025 164.228L71.0043 179.256L44.9836 164.228L45.4906 163.944L71.0043 178.668Z" fill="#A9EBFF"/>
<path d="M76.0137 181.305L91.1232 172.482L103.839 182.663L104.914 191.465V199.476L223.64 269.487L236.214 276.91L234.288 282.649L225.567 286.117L154.319 248.394L123.756 229.249L97.025 214.424L89.5413 208.684L89.0748 196.475L88.1013 189.072L76.0137 181.305Z" fill="white"/>
<path d="M224.918 288.125C228.75 288.114 232.422 286.588 235.131 283.878C237.841 281.168 239.368 277.497 239.378 273.665V233.103C239.378 232.565 239.165 232.049 238.784 231.668C238.404 231.288 237.888 231.074 237.35 231.074C236.812 231.074 236.296 231.288 235.916 231.668C235.536 232.049 235.322 232.565 235.322 233.103V273.665C235.32 275.508 234.833 277.318 233.91 278.913C232.987 280.509 231.661 281.833 230.064 282.754C228.467 283.674 226.656 284.159 224.813 284.158C222.97 284.158 221.16 283.672 219.564 282.751L94.8752 210.753C93.7681 210.081 92.8537 209.133 92.2211 208.003C91.5885 206.873 91.2592 205.599 91.2652 204.303V195.258C91.2601 193.257 90.7313 191.293 89.7315 189.56C88.7317 187.828 87.2956 186.387 85.5662 185.381L78.2041 181.142C77.7487 180.901 77.2184 180.842 76.7212 180.978C76.2239 181.114 75.7969 181.433 75.527 181.872C75.2779 182.328 75.2126 182.861 75.3446 183.363C75.4767 183.864 75.796 184.296 76.2368 184.57L83.5786 188.809C84.7139 189.459 85.657 190.399 86.3123 191.531C86.9677 192.664 87.312 193.949 87.3103 195.258V204.303C87.3108 206.302 87.8378 208.265 88.8383 209.996C89.8387 211.726 91.2774 213.162 93.0093 214.16L217.698 286.178C219.892 287.449 222.382 288.12 224.918 288.125Z" fill="white"/>
<path d="M90.3931 173.212C90.6633 172.768 91.094 172.445 91.596 172.309C92.098 172.173 92.633 172.235 93.0905 172.482L100.432 176.721C102.161 177.722 103.598 179.159 104.598 180.888C105.598 182.618 106.127 184.58 106.131 186.578V195.664C106.13 196.97 106.472 198.253 107.123 199.385C107.775 200.517 108.713 201.458 109.843 202.113L237.289 275.734C238.611 276.485 240.076 276.948 241.589 277.092C241.447 278.411 241.589 279.729 241.386 281.047C239.24 280.881 237.159 280.229 235.302 279.141L107.875 205.5C106.152 204.498 104.72 203.063 103.72 201.338C102.721 199.613 102.189 197.657 102.176 195.664V186.578C102.175 185.275 101.831 183.996 101.179 182.867C100.528 181.739 99.5921 180.802 98.465 180.149L91.1029 175.89C90.6673 175.616 90.3517 175.188 90.2199 174.691C90.0881 174.194 90.15 173.666 90.3931 173.212Z" fill="white"/>
<path d="M230.617 286.929L236.701 279.425L237.553 270.542V249.023V241.033L253.271 243.71V236.388C253.271 235.85 253.484 235.334 253.865 234.954C254.245 234.574 254.761 234.36 255.299 234.36C255.837 234.36 256.353 234.574 256.733 234.954C257.113 235.334 257.327 235.85 257.327 236.388V266.648C257.339 269.188 256.675 271.686 255.402 273.885C254.13 276.084 252.295 277.905 250.087 279.161C249.286 279.624 248.444 280.011 247.572 280.317L230.617 286.929Z" fill="url(#paint10_linear_7_267)"/>
<path d="M224.918 288.125C228.75 288.114 232.422 286.588 235.131 283.878C237.841 281.168 239.368 277.497 239.378 273.665V233.103C239.378 232.565 239.165 232.049 238.784 231.668C238.404 231.288 237.888 231.074 237.35 231.074C236.812 231.074 236.296 231.288 235.916 231.668C235.536 232.049 235.322 232.565 235.322 233.103V273.665C235.32 275.508 234.833 277.318 233.91 278.913C232.987 280.509 231.661 281.833 230.064 282.754C228.467 283.674 226.656 284.159 224.813 284.158C222.97 284.158 221.16 283.672 219.564 282.751L94.8752 210.753C93.7681 210.081 92.8537 209.133 92.2211 208.003C91.5885 206.873 91.2592 205.599 91.2652 204.303V195.258C91.2601 193.257 90.7313 191.293 89.7315 189.56C88.7317 187.828 87.2956 186.387 85.5662 185.381L78.2041 181.142C77.7487 180.901 77.2184 180.842 76.7212 180.978C76.2239 181.114 75.7969 181.433 75.527 181.872C75.2779 182.328 75.2126 182.861 75.3446 183.363C75.4767 183.864 75.796 184.296 76.2368 184.57L83.5786 188.809C84.7139 189.459 85.657 190.399 86.3123 191.531C86.9677 192.664 87.312 193.949 87.3103 195.258V204.303C87.3108 206.302 87.8378 208.265 88.8383 209.996C89.8387 211.726 91.2774 213.162 93.0093 214.16L217.698 286.178C219.892 287.449 222.382 288.12 224.918 288.125Z" fill="url(#paint11_linear_7_267)"/>
<path opacity="0.2" d="M65.5081 185.259L68.1649 186.781V181.447L65.5081 179.926V185.259Z" fill="white"/>
<path opacity="0.2" d="M61.0868 182.704L63.7436 184.225V178.891L61.0868 177.37V182.704Z" fill="white"/>
<path opacity="0.2" d="M56.6655 180.149L59.3223 181.69V176.336L56.6655 174.815V180.149Z" fill="white"/>
<path d="M52.2442 177.593L54.901 179.134V173.801L52.2442 172.259V177.593Z" fill="#DFB36A"/>
<path d="M47.8229 175.038L50.4797 176.579V171.245L47.8229 169.704V175.038Z" fill="#DFB36A"/>
<path d="M112.824 166.54L138.845 151.532V139.992L112.824 155V166.54Z" fill="url(#paint12_linear_7_267)"/>
<path d="M112.824 155L138.845 139.992L112.824 124.964L86.8031 139.992L112.824 155Z" fill="url(#paint13_linear_7_267)"/>
<path d="M86.8031 151.532L112.824 166.54V155L86.8031 139.992V151.532Z" fill="url(#paint14_linear_7_267)"/>
<path d="M112.824 154.432L138.358 139.688L138.845 139.992L112.824 155L86.8031 139.992L87.3102 139.688L112.824 154.432Z" fill="#A9EBFF"/>
<path d="M117.833 157.048L132.943 148.226L145.659 158.427L146.734 167.209V175.22L265.46 245.231L278.034 252.654L276.107 258.393L267.386 261.861L255.299 258.292L224.735 239.146L138.845 190.188L131.361 184.448L130.894 172.239L129.921 164.816L117.833 157.048Z" fill="white"/>
<path d="M266.737 263.889C270.569 263.879 274.241 262.352 276.951 259.642C279.66 256.933 281.187 253.261 281.198 249.429V208.867C281.198 208.329 280.984 207.813 280.604 207.433C280.224 207.052 279.708 206.839 279.17 206.839C278.632 206.839 278.116 207.052 277.736 207.433C277.355 207.813 277.142 208.329 277.142 208.867V249.429C277.14 251.272 276.653 253.082 275.73 254.677C274.807 256.273 273.48 257.597 271.884 258.518C270.287 259.439 268.476 259.923 266.633 259.922C264.79 259.922 262.979 259.436 261.383 258.515L136.796 186.497C135.666 185.842 134.728 184.901 134.077 183.769C133.425 182.637 133.083 181.353 133.085 180.047V171.022C133.073 169.028 132.541 167.072 131.541 165.347C130.542 163.622 129.109 162.188 127.386 161.186L120.044 156.947C119.587 156.7 119.052 156.638 118.549 156.773C118.047 156.909 117.617 157.233 117.347 157.677C117.097 158.132 117.032 158.665 117.164 159.167C117.296 159.669 117.616 160.101 118.056 160.375L125.398 164.613C126.534 165.264 127.477 166.203 128.132 167.336C128.787 168.468 129.132 169.754 129.13 171.063V180.047C129.135 182.048 129.664 184.012 130.664 185.745C131.663 187.478 133.099 188.919 134.829 189.924L259.598 261.942C261.769 263.2 264.229 263.871 266.737 263.889Z" fill="white"/>
<path d="M132.213 149.017C132.486 148.576 132.918 148.257 133.42 148.125C133.922 147.993 134.455 148.058 134.91 148.307L142.252 152.546C143.991 153.529 145.442 154.95 146.46 156.669C147.478 158.388 148.027 160.344 148.052 162.342V171.326C148.051 172.632 148.393 173.916 149.044 175.048C149.696 176.18 150.634 177.121 151.764 177.776L279.292 251.416C280.608 252.183 282.075 252.654 283.591 252.796C283.449 254.094 283.49 255.432 283.388 256.852C281.245 256.668 279.168 256.018 277.304 254.945L149.695 181.244C147.957 180.238 146.515 178.791 145.514 177.05C144.514 175.309 143.99 173.335 143.996 171.326V162.342C143.994 161.036 143.65 159.754 142.999 158.623C142.348 157.492 141.412 156.55 140.285 155.892L132.943 151.654C132.514 151.385 132.201 150.965 132.066 150.477C131.931 149.989 131.983 149.468 132.213 149.017Z" fill="white"/>
<path d="M272.437 262.713L278.521 255.209L279.373 246.326V224.787V216.675L295.091 219.352V212.051C295.023 211.754 295.023 211.445 295.091 211.148C295.159 210.851 295.293 210.574 295.483 210.335C295.672 210.097 295.914 209.905 296.188 209.773C296.463 209.641 296.763 209.572 297.068 209.572C297.373 209.572 297.673 209.641 297.948 209.773C298.222 209.905 298.463 210.097 298.653 210.335C298.843 210.574 298.977 210.851 299.045 211.148C299.113 211.445 299.113 211.754 299.045 212.051V242.31C299.055 244.85 298.39 247.348 297.118 249.546C295.846 251.745 294.012 253.566 291.805 254.824C291.005 255.287 290.163 255.674 289.29 255.98L272.437 262.713Z" fill="url(#paint15_linear_7_267)"/>
<path d="M266.737 263.889C270.569 263.879 274.241 262.352 276.951 259.642C279.66 256.933 281.187 253.261 281.198 249.429V208.867C281.198 208.329 280.984 207.813 280.604 207.433C280.224 207.052 279.708 206.839 279.17 206.839C278.632 206.839 278.116 207.052 277.736 207.433C277.355 207.813 277.142 208.329 277.142 208.867V249.429C277.14 251.272 276.653 253.082 275.73 254.677C274.807 256.273 273.48 257.597 271.884 258.518C270.287 259.439 268.476 259.923 266.633 259.922C264.79 259.922 262.979 259.436 261.383 258.515L136.796 186.497C135.666 185.842 134.728 184.901 134.077 183.769C133.425 182.637 133.083 181.353 133.085 180.047V171.022C133.073 169.028 132.541 167.072 131.541 165.347C130.542 163.622 129.109 162.188 127.386 161.186L120.044 156.947C119.587 156.7 119.052 156.638 118.549 156.773C118.047 156.909 117.617 157.233 117.347 157.677C117.097 158.132 117.032 158.665 117.164 159.167C117.296 159.669 117.616 160.101 118.056 160.375L125.398 164.613C126.534 165.264 127.477 166.203 128.132 167.336C128.787 168.468 129.132 169.754 129.13 171.063V180.047C129.135 182.048 129.664 184.012 130.664 185.745C131.663 187.478 133.099 188.919 134.829 189.924L259.598 261.942C261.769 263.2 264.229 263.871 266.737 263.889Z" fill="url(#paint16_linear_7_267)"/>
<path opacity="0.2" d="M107.328 161.024L109.985 162.545V157.211L107.328 155.669V161.024Z" fill="white"/>
<path opacity="0.2" d="M102.906 158.468L105.563 159.989V154.655L102.906 153.134V158.468Z" fill="white"/>
<path d="M98.4852 155.913L101.142 157.434V152.1L98.4852 150.579V155.913Z" fill="#DFB36A"/>
<path d="M94.0639 153.357L96.7207 154.878V149.544L94.0639 148.023V153.357Z" fill="#DFB36A"/>
<path d="M89.6426 150.802L92.2994 152.323V146.989L89.6426 145.468V150.802Z" fill="#DFB36A"/>
<path d="M154.644 142.304L180.664 127.276V115.736L154.644 130.764V142.304Z" fill="url(#paint17_linear_7_267)"/>
<path d="M154.644 130.764L180.664 115.736L154.644 100.728L128.623 115.736L154.644 130.764Z" fill="url(#paint18_linear_7_267)"/>
<path d="M128.623 127.276L154.644 142.304V130.764L128.623 115.736V127.276Z" fill="url(#paint19_linear_7_267)"/>
<path d="M154.644 130.196L180.178 115.452L180.664 115.736L154.644 130.764L128.623 115.736L129.13 115.452L154.644 130.196Z" fill="#A9EBFF"/>
<path d="M159.653 132.813L174.763 123.99L187.479 134.192L188.554 142.973V150.984L307.28 220.995L319.854 228.418L317.927 234.157L309.206 237.625L297.119 234.036L266.555 214.91L180.664 165.932L173.181 160.192L172.714 148.003L171.761 140.58L159.653 132.813Z" fill="white"/>
<path d="M308.557 239.653C312.389 239.632 316.058 238.099 318.766 235.387C321.474 232.676 323.002 229.005 323.018 225.173V184.61C323.018 184.073 322.804 183.557 322.424 183.176C322.043 182.796 321.527 182.582 320.99 182.582C320.452 182.582 319.936 182.796 319.555 183.176C319.175 183.557 318.961 184.073 318.961 184.61V225.173C318.963 227.018 318.478 228.83 317.557 230.428C316.636 232.027 315.309 233.354 313.712 234.277C312.115 235.2 310.303 235.686 308.458 235.686C306.613 235.687 304.801 235.201 303.203 234.279L178.616 162.261C177.486 161.606 176.548 160.665 175.897 159.533C175.245 158.401 174.903 157.117 174.905 155.811V146.766C174.911 144.758 174.387 142.783 173.386 141.042C172.386 139.301 170.944 137.854 169.206 136.848L161.864 132.61C161.424 132.462 160.948 132.469 160.513 132.63C160.078 132.791 159.711 133.096 159.474 133.495C159.237 133.893 159.144 134.361 159.209 134.82C159.275 135.279 159.496 135.701 159.836 136.017L167.177 140.256C168.309 140.911 169.248 141.851 169.903 142.983C170.558 144.114 170.905 145.398 170.909 146.705V155.75C170.914 157.751 171.443 159.715 172.443 161.448C173.443 163.181 174.879 164.622 176.608 165.627L301.297 237.625C303.493 238.937 305.999 239.637 308.557 239.653Z" fill="white"/>
<path d="M174.033 124.68C174.303 124.235 174.733 123.912 175.235 123.776C175.737 123.64 176.272 123.702 176.73 123.95L184.072 128.188C185.801 129.194 187.237 130.635 188.237 132.368C189.237 134.1 189.766 136.065 189.771 138.065V147.111C189.775 148.418 190.122 149.701 190.777 150.833C191.432 151.964 192.371 152.905 193.502 153.56L321.01 227.201C322.326 227.968 323.793 228.438 325.31 228.58C325.168 229.878 325.31 231.217 325.107 232.636C322.964 232.453 320.887 231.802 319.022 230.73L191.515 157.008C189.786 156.007 188.349 154.57 187.349 152.841C186.349 151.111 185.82 149.149 185.816 147.151V138.106C185.818 136.8 185.475 135.516 184.824 134.384C184.172 133.252 183.235 132.311 182.104 131.657L174.763 127.418C174.308 127.147 173.977 126.709 173.84 126.197C173.704 125.686 173.773 125.141 174.033 124.68Z" fill="white"/>
<path d="M314.358 238.457L320.442 230.953L321.294 222.07V200.551V192.439L337.012 195.116V187.896C337.114 187.448 337.365 187.048 337.724 186.761C338.084 186.475 338.529 186.318 338.989 186.318C339.449 186.318 339.895 186.475 340.254 186.761C340.613 187.048 340.864 187.448 340.966 187.896V218.155C340.991 220.698 340.332 223.201 339.058 225.403C337.785 227.604 335.943 229.423 333.726 230.669C332.926 231.132 332.084 231.519 331.211 231.825L314.358 238.457Z" fill="url(#paint20_linear_7_267)"/>
<path d="M308.557 239.653C312.389 239.632 316.058 238.099 318.766 235.387C321.474 232.676 323.002 229.005 323.018 225.173V184.61C323.018 184.073 322.804 183.557 322.424 183.176C322.043 182.796 321.527 182.582 320.99 182.582C320.452 182.582 319.936 182.796 319.555 183.176C319.175 183.557 318.961 184.073 318.961 184.61V225.173C318.963 227.018 318.478 228.83 317.557 230.428C316.636 232.027 315.309 233.354 313.712 234.277C312.115 235.2 310.303 235.686 308.458 235.686C306.613 235.687 304.801 235.201 303.203 234.279L178.616 162.261C177.486 161.606 176.548 160.665 175.897 159.533C175.245 158.401 174.903 157.117 174.905 155.811V146.766C174.911 144.758 174.387 142.783 173.386 141.042C172.386 139.301 170.944 137.854 169.206 136.848L161.864 132.61C161.424 132.462 160.948 132.469 160.513 132.63C160.078 132.791 159.711 133.096 159.474 133.495C159.237 133.893 159.144 134.361 159.209 134.82C159.275 135.279 159.496 135.701 159.836 136.017L167.177 140.256C168.309 140.911 169.248 141.851 169.903 142.983C170.558 144.114 170.905 145.398 170.909 146.705V155.75C170.914 157.751 171.443 159.715 172.443 161.448C173.443 163.181 174.879 164.622 176.608 165.627L301.297 237.625C303.493 238.937 305.999 239.637 308.557 239.653Z" fill="url(#paint21_linear_7_267)"/>
<path opacity="0.2" d="M149.168 136.767L151.825 138.309V132.975L149.168 131.433V136.767Z" fill="white"/>
<path d="M144.726 134.212L147.383 135.753V130.419L144.726 128.878V134.212Z" fill="#DFB36A"/>
<path d="M140.305 131.657L142.962 133.198V127.864L140.305 126.323V131.657Z" fill="#DFB36A"/>
<path d="M135.884 129.101L138.54 130.642V125.308L135.884 123.767V129.101Z" fill="#DFB36A"/>
<path d="M131.462 126.546L134.119 128.087V122.753L131.462 121.212V126.546Z" fill="#DFB36A"/>
<path d="M307.888 455.688L407.367 398.252L307.908 340.836L208.429 398.272L307.888 455.688Z" fill="#293335"/>
<path d="M307.888 367.567L414.12 306.236V259.144L307.888 320.474V367.567Z" fill="url(#paint22_linear_7_267)"/>
<path d="M307.888 320.454L414.121 259.144L307.908 197.814L201.676 259.144L307.888 320.454Z" fill="url(#paint23_linear_7_267)"/>
<path d="M307.908 305.831L388.769 259.144L307.908 212.457L227.027 259.144L307.908 305.831Z" fill="white"/>
<path d="M201.676 306.236L307.908 367.567V320.474L201.676 259.144V306.236Z" fill="url(#paint24_linear_7_267)"/>
<path d="M307.888 291.837L414.12 230.507V183.394L307.888 244.724V291.837Z" fill="url(#paint25_linear_7_267)"/>
<path d="M307.888 244.724L414.121 183.394L307.908 122.084L201.676 183.414L307.888 244.724Z" fill="url(#paint26_linear_7_267)"/>
<path d="M307.888 242.371L412.072 182.217L414.121 183.394L307.888 244.724L201.676 183.414L203.724 182.217L307.888 242.371Z" fill="#A9EBFF"/>
<path d="M307.888 318.101L412.072 257.967L414.121 259.144L307.888 320.453L201.676 259.144L203.724 257.967L307.888 318.101Z" fill="#A9EBFF"/>
<path d="M307.908 145.529L382.34 188.504L307.908 231.48L233.456 188.504L307.908 145.529Z" fill="white"/>
<path d="M307.908 145.529L233.456 188.505L224.614 183.414L307.908 135.327L391.183 183.394L382.34 188.505L307.908 145.529Z" fill="#2573BA"/>
<path d="M201.676 230.507L307.908 291.837V244.724L201.676 183.394V230.507Z" fill="url(#paint27_linear_7_267)"/>
<path d="M270.834 246.874C270.952 248.982 271.564 251.034 272.621 252.862C273.678 254.691 275.15 256.245 276.919 257.399C280.285 259.428 283.003 257.765 283.003 253.891C282.888 251.781 282.278 249.729 281.221 247.9C280.163 246.071 278.689 244.517 276.919 243.365C273.552 241.438 270.834 243 270.834 246.874Z" fill="white"/>
<path d="M248.728 234.198C248.842 236.305 249.453 238.354 250.511 240.18C251.568 242.006 253.042 243.556 254.812 244.704C258.159 246.732 260.897 245.069 260.897 241.195C260.779 239.089 260.167 237.04 259.11 235.215C258.053 233.39 256.58 231.839 254.812 230.689C251.486 228.661 248.728 230.243 248.728 234.198Z" fill="white"/>
<path d="M226.601 221.34C226.716 223.449 227.326 225.502 228.384 227.331C229.441 229.16 230.915 230.713 232.686 231.865C236.032 233.894 238.77 232.231 238.77 228.357C238.652 226.248 238.04 224.197 236.983 222.368C235.926 220.54 234.454 218.985 232.686 217.831C229.319 215.945 226.601 217.466 226.601 221.34Z" fill="white"/>
<path d="M273.917 242.594C273.588 243.348 273.428 244.165 273.451 244.987C273.565 247.094 274.176 249.144 275.233 250.97C276.291 252.795 277.765 254.345 279.535 255.493C280.427 256.05 281.466 256.326 282.516 256.284C281.624 258.312 279.454 258.86 276.898 257.399C275.13 256.245 273.658 254.691 272.601 252.862C271.544 251.034 270.932 248.982 270.814 246.874C270.834 244.338 272.072 242.736 273.917 242.594Z" fill="#A9EBFF"/>
<path d="M251.79 229.817C251.482 230.577 251.33 231.391 251.344 232.21C251.462 234.319 252.074 236.37 253.131 238.199C254.188 240.027 255.66 241.582 257.428 242.736C258.325 243.298 259.374 243.567 260.43 243.507C259.517 245.535 257.347 246.103 254.812 244.622C253.042 243.475 251.568 241.925 250.511 240.099C249.453 238.273 248.842 236.223 248.728 234.117C248.728 231.5 249.965 229.979 251.79 229.817Z" fill="#A9EBFF"/>
<path d="M229.684 217.06C229.371 217.818 229.219 218.633 229.238 219.453C229.355 221.559 229.968 223.608 231.025 225.433C232.082 227.258 233.554 228.809 235.322 229.959C236.221 230.517 237.267 230.792 238.324 230.75C237.411 232.778 235.241 233.326 232.706 231.865C230.935 230.713 229.461 229.16 228.404 227.331C227.347 225.502 226.736 223.449 226.622 221.34C226.601 218.744 227.859 217.202 229.684 217.06Z" fill="#A9EBFF"/>
<path d="M270.834 322.624C270.949 324.73 271.56 326.78 272.617 328.606C273.674 330.432 275.148 331.981 276.919 333.129C280.285 335.157 283.003 333.494 283.003 329.621C282.89 327.513 282.28 325.463 281.223 323.637C280.165 321.811 278.69 320.261 276.919 319.115C273.552 317.168 270.834 318.75 270.834 322.624Z" fill="white"/>
<path d="M248.728 309.846C248.846 311.955 249.458 314.007 250.515 315.835C251.572 317.664 253.044 319.218 254.812 320.372C258.159 322.299 260.897 320.737 260.897 316.864C260.779 314.755 260.167 312.704 259.11 310.875C258.053 309.047 256.581 307.492 254.812 306.338C251.486 304.411 248.728 305.973 248.728 309.846Z" fill="white"/>
<path d="M226.601 297.069C226.714 299.176 227.324 301.227 228.382 303.053C229.439 304.879 230.914 306.428 232.686 307.575C236.032 309.603 238.77 307.94 238.77 304.066C238.655 301.96 238.045 299.91 236.987 298.084C235.93 296.258 234.456 294.708 232.686 293.561C229.319 291.634 226.601 293.216 226.601 297.069Z" fill="white"/>
<path d="M273.917 318.324C273.59 319.078 273.43 319.895 273.451 320.717C273.563 322.824 274.174 324.875 275.231 326.701C276.289 328.527 277.764 330.076 279.535 331.223C280.419 331.799 281.464 332.076 282.516 332.014C281.624 334.042 279.454 334.589 276.898 333.129C275.128 331.981 273.654 330.432 272.597 328.606C271.539 326.78 270.929 324.73 270.814 322.624C270.834 320.007 272.072 318.486 273.917 318.324Z" fill="#A9EBFF"/>
<path d="M251.79 305.567C251.48 306.319 251.328 307.127 251.344 307.94C251.459 310.049 252.069 312.102 253.127 313.931C254.184 315.76 255.658 317.314 257.428 318.466C258.327 319.023 259.373 319.299 260.43 319.257C259.517 321.285 257.347 321.832 254.812 320.372C253.044 319.218 251.572 317.663 250.515 315.835C249.458 314.006 248.846 311.955 248.728 309.846C248.728 307.21 249.965 305.709 251.79 305.567Z" fill="#A9EBFF"/>
<path d="M229.684 292.79C229.376 293.55 229.224 294.364 229.238 295.183C229.352 297.29 229.963 299.34 231.02 301.165C232.078 302.991 233.552 304.541 235.322 305.689C236.213 306.265 237.265 306.542 238.324 306.48C237.411 308.508 235.241 309.055 232.706 307.595C230.934 306.449 229.46 304.899 228.402 303.073C227.345 301.247 226.734 299.197 226.622 297.09C226.601 294.473 227.859 293.013 229.684 292.79Z" fill="#A9EBFF"/>
<path d="M345.002 247.3C344.885 249.408 344.273 251.46 343.216 253.288C342.159 255.117 340.687 256.671 338.918 257.825C335.572 259.752 332.834 258.19 332.834 254.317C332.951 252.208 333.564 250.157 334.62 248.328C335.677 246.5 337.15 244.945 338.918 243.791C342.285 241.864 345.002 243.426 345.002 247.3Z" fill="white"/>
<path d="M367.089 234.543C366.974 236.649 366.363 238.699 365.306 240.525C364.249 242.351 362.775 243.901 361.004 245.048C357.658 247.076 354.92 245.413 354.92 241.54C355.034 239.433 355.645 237.383 356.703 235.557C357.76 233.732 359.234 232.182 361.004 231.034C364.411 229.087 367.089 230.669 367.089 234.543Z" fill="white"/>
<path d="M389.236 221.765C389.118 223.874 388.506 225.926 387.449 227.754C386.392 229.583 384.92 231.137 383.151 232.291C379.785 234.319 377.067 232.656 377.067 228.783C377.182 226.673 377.792 224.621 378.849 222.792C379.907 220.963 381.381 219.409 383.151 218.257C386.518 216.33 389.236 217.973 389.236 221.765Z" fill="white"/>
<path d="M341.94 243.02C342.251 243.772 342.402 244.58 342.386 245.393C342.268 247.502 341.656 249.553 340.599 251.382C339.542 253.21 338.07 254.764 336.302 255.919C335.405 256.48 334.356 256.75 333.3 256.69C334.213 258.718 336.383 259.286 338.918 257.825C340.687 256.671 342.159 255.117 343.216 253.288C344.273 251.46 344.885 249.408 345.002 247.299C345.002 244.703 343.765 243.162 341.94 243.02Z" fill="#A9EBFF"/>
<path d="M364.046 230.243C364.362 231.001 364.52 231.815 364.513 232.636C364.4 234.743 363.79 236.794 362.732 238.62C361.675 240.446 360.2 241.995 358.429 243.142C357.544 243.715 356.5 243.992 355.447 243.933C356.34 245.961 358.51 246.509 361.045 245.048C362.815 243.901 364.289 242.351 365.347 240.525C366.404 238.699 367.015 236.649 367.129 234.543C367.089 231.926 365.872 230.405 364.046 230.243Z" fill="#A9EBFF"/>
<path d="M386.153 217.486C386.481 218.233 386.64 219.043 386.619 219.859C386.505 221.968 385.894 224.021 384.837 225.85C383.78 227.679 382.306 229.233 380.535 230.385C379.647 230.948 378.604 231.218 377.554 231.155C378.466 233.184 380.616 233.751 383.172 232.291C384.94 231.137 386.412 229.582 387.469 227.754C388.526 225.925 389.138 223.874 389.256 221.765C389.236 219.169 387.999 217.628 386.153 217.486Z" fill="#A9EBFF"/>
<path d="M345.002 323.029C344.888 325.139 344.277 327.191 343.22 329.02C342.163 330.849 340.689 332.403 338.918 333.555C335.572 335.482 332.834 333.92 332.834 330.046C332.948 327.94 333.559 325.89 334.616 324.064C335.674 322.238 337.148 320.689 338.918 319.541C342.285 317.594 345.002 319.176 345.002 323.029Z" fill="white"/>
<path d="M367.089 310.272C366.976 312.379 366.366 314.43 365.308 316.256C364.251 318.082 362.776 319.631 361.004 320.778C357.658 322.806 354.92 321.163 354.92 317.29C355.038 315.181 355.65 313.129 356.707 311.301C357.764 309.472 359.236 307.918 361.004 306.764C364.411 304.837 367.089 306.399 367.089 310.272Z" fill="white"/>
<path d="M389.236 297.495C389.121 299.605 388.51 301.657 387.453 303.486C386.396 305.315 384.922 306.869 383.151 308.021C379.785 309.948 377.067 308.386 377.067 304.513C377.18 302.405 377.79 300.355 378.847 298.529C379.905 296.703 381.38 295.153 383.151 294.007C386.518 292.06 389.236 293.642 389.236 297.495Z" fill="white"/>
<path d="M341.94 318.75C342.253 319.508 342.405 320.323 342.386 321.143C342.272 323.25 341.661 325.3 340.603 327.125C339.546 328.951 338.072 330.501 336.302 331.649C335.403 332.206 334.357 332.482 333.3 332.44C334.213 334.468 336.383 335.015 338.918 333.555C340.689 332.403 342.163 330.849 343.22 329.02C344.277 327.191 344.888 325.139 345.002 323.029C345.002 320.433 343.765 318.912 341.94 318.75Z" fill="#A9EBFF"/>
<path d="M364.046 305.993C364.365 306.743 364.523 307.551 364.513 308.366C364.398 310.475 363.788 312.528 362.73 314.357C361.673 316.186 360.199 317.74 358.429 318.892C357.539 319.451 356.497 319.721 355.447 319.662C356.34 321.691 358.51 322.258 361.045 320.778C362.816 319.631 364.291 318.082 365.349 316.256C366.406 314.43 367.016 312.379 367.129 310.272C367.089 307.656 365.872 306.135 364.046 305.993Z" fill="#A9EBFF"/>
<path d="M386.153 293.216C386.482 293.97 386.642 294.787 386.619 295.609C386.507 297.716 385.896 299.767 384.839 301.593C383.781 303.419 382.307 304.968 380.535 306.115C379.644 306.674 378.605 306.95 377.554 306.906C378.466 308.934 380.616 309.481 383.172 308.021C384.942 306.869 386.416 305.315 387.474 303.486C388.531 301.657 389.141 299.605 389.256 297.495C389.236 294.899 387.999 293.378 386.153 293.216Z" fill="#A9EBFF"/>
<path d="M307.888 213.47L414.12 152.161V132.934L307.888 194.264V213.47Z" fill="url(#paint28_linear_7_267)"/>
<path d="M307.888 194.264L414.121 132.934L307.908 71.6244L201.676 132.934L307.888 194.264Z" fill="url(#paint29_linear_7_267)"/>
<path d="M307.888 191.892L412.072 131.758L414.121 132.934L307.888 194.264L201.676 132.934L203.724 131.758L307.888 191.892Z" fill="#A9EBFF"/>
<path d="M201.676 152.161L307.908 213.47V194.264L201.676 132.934V152.161Z" fill="url(#paint30_linear_7_267)"/>
<path opacity="0.5" d="M414.12 230.507V259.144L307.888 320.453L307.908 291.837L414.12 230.507Z" fill="white"/>
<path opacity="0.5" d="M201.676 230.507V259.144L307.888 320.453L307.908 291.837L201.676 230.507Z" fill="white"/>
<path d="M179.65 225.477V340.674L279.413 398.252V283.075L179.65 225.477ZM191.555 246.103L267.508 289.951V377.646L191.555 333.799V246.103Z" fill="url(#paint31_linear_7_267)"/>
<path d="M166.001 233.285V348.482L265.683 406.081V290.985L166.001 233.285ZM177.906 253.911L253.839 297.759V385.455L177.906 341.688V253.911Z" fill="url(#paint32_linear_7_267)"/>
<path d="M166.001 233.285L179.65 225.477L279.413 283.075L265.744 290.884L166.001 233.285Z" fill="url(#paint33_linear_7_267)"/>
<path d="M279.413 283.075L265.744 290.884V406.08L279.413 398.272V283.075Z" fill="url(#paint34_linear_7_267)"/>
<path d="M191.555 333.798L177.906 341.607V253.911L191.555 261.8V333.798Z" fill="url(#paint35_linear_7_267)"/>
<path d="M191.555 333.798L177.906 341.607L253.839 385.454L253.859 369.757L191.555 333.798Z" fill="url(#paint36_linear_7_267)"/>
<path opacity="0.5" d="M185.207 337.429V258.19L253.839 297.759V376.389L185.207 337.429Z" fill="#7BDAFF"/>
<path d="M147.099 244.338V359.535L246.862 417.134V301.937L147.099 244.338ZM159.004 264.964L234.957 308.812V396.447L159.004 352.559V264.964Z" fill="url(#paint37_linear_7_267)"/>
<path d="M133.45 252.066V367.242L233.233 424.841V309.664L133.45 252.066ZM145.355 272.732L221.287 316.58V404.276L145.355 360.367V272.732Z" fill="url(#paint38_linear_7_267)"/>
<path d="M133.45 252.066L147.099 244.237L246.862 301.835L233.192 309.664L133.45 252.066Z" fill="url(#paint39_linear_7_267)"/>
<path d="M246.862 301.835L233.193 309.664V424.84L246.862 417.032V301.835Z" fill="url(#paint40_linear_7_267)"/>
<path d="M159.004 352.559L145.355 360.367V272.671L159.004 280.561V352.559Z" fill="url(#paint41_linear_7_267)"/>
<path d="M159.004 352.559L145.355 360.367L221.288 404.215L221.308 388.517L159.004 352.559Z" fill="url(#paint42_linear_7_267)"/>
<path opacity="0.5" d="M152.656 356.189V276.95L221.288 316.519V395.149L152.656 356.189Z" fill="#7BDAFF"/>
<path d="M233.192 309.664L133.45 252.065L135.802 250.767L235.545 308.366V423.563L233.192 424.84V309.664Z" fill="#A9EBFF"/>
<path d="M265.744 290.884L166.001 233.285L168.354 232.008L268.117 289.586V404.783L265.744 406.081V290.884Z" fill="#A9EBFF"/>
<path d="M145.355 272.671L147.708 274.03V359.089L221.288 401.578V404.215L145.355 360.367V272.671Z" fill="#A9EBFF"/>
<path opacity="0.5" d="M147.099 244.237L166.001 233.285L265.744 290.884V406.08L246.862 417.032V301.836L147.099 244.237Z" fill="white"/>
<path opacity="0.5" d="M265.744 290.884L246.862 301.836L147.099 244.237L166.001 233.285L265.744 290.884Z" fill="white"/>
<path d="M336.099 283.075V398.252L435.862 340.674V225.477L336.099 283.075ZM423.957 333.778L348.004 377.626V289.951L423.876 246.103L423.957 333.778Z" fill="url(#paint43_linear_7_267)"/>
<path d="M349.768 290.985V406.182L449.531 348.583V233.387L349.768 290.985ZM437.626 341.688L361.673 385.536V297.759L437.626 253.911V341.688Z" fill="url(#paint44_linear_7_267)"/>
<path d="M449.531 233.285L435.862 225.477L336.099 283.075L349.769 290.884L449.531 233.285Z" fill="url(#paint45_linear_7_267)"/>
<path d="M336.099 283.075L349.769 290.884V406.08L336.099 398.272V283.075Z" fill="url(#paint46_linear_7_267)"/>
<path d="M423.957 333.798L437.626 341.607V253.911L423.977 261.8L423.957 333.798Z" fill="url(#paint47_linear_7_267)"/>
<path d="M423.957 333.798L437.626 341.607L361.674 385.454V369.757L423.957 333.798Z" fill="url(#paint48_linear_7_267)"/>
<path opacity="0.5" d="M430.305 337.429V258.19L361.674 297.759V376.389L430.305 337.429Z" fill="#7BDAFF"/>
<path d="M368.65 301.835V417.032L468.494 359.434V244.338L368.65 301.835ZM456.508 352.538L380.555 396.447V308.711L456.508 264.863V352.538Z" fill="url(#paint49_linear_7_267)"/>
<path d="M382.32 309.664V424.841L482.083 367.242V252.066L382.32 309.664ZM470.178 360.367L394.225 404.215V316.519L470.178 272.732V360.367Z" fill="url(#paint50_linear_7_267)"/>
<path d="M482.083 252.066L468.413 244.237L368.65 301.835L382.32 309.664L482.083 252.066Z" fill="url(#paint51_linear_7_267)"/>
<path d="M368.65 301.835L382.32 309.664V424.84L368.65 417.032V301.835Z" fill="url(#paint52_linear_7_267)"/>
<path d="M456.508 352.559L470.178 360.367V272.671L456.528 280.561L456.508 352.559Z" fill="url(#paint53_linear_7_267)"/>
<path d="M456.508 352.559L470.178 360.367L394.225 404.215V388.517L456.508 352.559Z" fill="url(#paint54_linear_7_267)"/>
<path opacity="0.5" d="M462.856 356.189V276.95L394.225 316.519V395.149L462.856 356.189Z" fill="#7BDAFF"/>
<path d="M382.32 309.664L482.083 252.065L479.73 250.767L379.967 308.366V423.563L382.32 424.84V309.664Z" fill="#A9EBFF"/>
<path d="M349.769 290.884L449.532 233.285L447.179 232.008L347.416 289.586V404.783L349.769 406.081V290.884Z" fill="#A9EBFF"/>
<path d="M470.178 272.671L467.825 274.03V359.089L394.225 401.578V404.215L470.178 360.367V272.671Z" fill="#A9EBFF"/>
<path opacity="0.5" d="M468.413 244.237L449.531 233.285L349.768 290.884V406.08L368.65 417.032V301.836L468.413 244.237Z" fill="white"/>
<path opacity="0.5" d="M349.768 290.884L368.65 301.836L468.413 244.237L449.531 233.285L349.768 290.884Z" fill="white"/>
<g opacity="0.5">
<path d="M442.109 113.586L398.464 88.3967L433.144 68.3793L476.769 93.5684L442.109 113.586Z" fill="#E0E0E0"/>
<path d="M442.109 55.3384L398.464 30.1493L433.144 10.1318L476.769 35.3209L442.109 55.3384Z" fill="url(#paint55_linear_7_267)"/>
<path d="M476.769 62.3354V35.321L442.109 55.3384V82.3529L476.769 62.3354Z" fill="url(#paint56_linear_7_267)"/>
<path d="M398.464 30.1494V57.1638L442.109 82.353V55.3385L398.464 30.1494Z" fill="url(#paint57_linear_7_267)"/>
<path d="M425.295 23.8216L406.393 34.7328V40.5738L412.011 43.8187V37.9778L430.893 27.0665L425.295 23.8216Z" fill="white"/>
<path d="M437.302 30.7577L418.4 41.6689V47.5099L424.018 50.7346V44.8936L442.9 33.9824L437.302 30.7577Z" fill="white"/>
<path d="M449.308 37.6938L430.427 48.5848V54.446L436.024 57.6707V51.8298L454.926 40.9185L449.308 37.6938Z" fill="white"/>
<path d="M425.296 23.8216V26.1742L428.906 28.2226L430.893 27.0665L425.296 23.8216Z" fill="#A9EBFF"/>
<path d="M408.442 39.3773L406.393 40.5739L412.011 43.8189V41.3852L408.442 39.3773Z" fill="#A9EBFF"/>
<path d="M425.295 23.8216L406.393 34.7328V40.5738L408.442 39.3772V35.9294L425.316 26.1742L425.295 23.8216Z" fill="url(#paint58_linear_7_267)"/>
<path d="M437.302 30.7577V33.1103L440.892 35.1384L442.9 33.9824L437.302 30.7577Z" fill="#A9EBFF"/>
<path d="M420.428 46.293L418.4 47.5099L424.018 50.7346V48.3009L420.428 46.293Z" fill="#A9EBFF"/>
<path d="M437.302 30.7577L418.4 41.6689V47.5099L420.428 46.293V42.8452L437.302 33.1103V30.7577Z" fill="url(#paint59_linear_7_267)"/>
<path d="M449.308 37.6938V40.0464L452.918 42.0745L454.926 40.9185L449.308 37.6938Z" fill="#A9EBFF"/>
<path d="M432.455 53.2292L430.427 54.4461L436.024 57.6708V55.237L432.455 53.2292Z" fill="#A9EBFF"/>
<path d="M449.308 37.6938L430.427 48.5848V54.446L432.455 53.2292V49.7814L449.308 40.0464V37.6938Z" fill="url(#paint60_linear_7_267)"/>
</g>
<path d="M230.827 135.202L299.058 174.595L382.219 128.498L313.989 89.1052L230.827 135.202ZM277.825 128.723L272.351 131.757L305.999 151.184L311.472 148.15L322.455 154.49L304.809 164.271L249.197 132.164L266.843 122.383L277.825 128.723ZM363.863 131.545L346.218 141.326L335.229 134.981L340.696 131.951L327.907 124.567L319.492 129.232L323.949 131.805L306.06 141.721L289.055 131.903L306.944 121.987L311.408 124.564L319.823 119.9L307.048 112.525L301.581 115.555L290.599 109.214L308.245 99.4333L363.863 131.545Z" fill="#202A2C"/>
</g>
<defs>
<radialGradient id="paint0_radial_7_267" cx="0" cy="0" r="1" gradientUnits="userSpaceOnUse" gradientTransform="translate(327.337 29.0542) scale(468.19 468.19)">
<stop stop-color="#425A5C"/>
<stop offset="1" stop-color="#354244"/>
</radialGradient>
<radialGradient id="paint1_radial_7_267" cx="0" cy="0" r="1" gradientUnits="userSpaceOnUse" gradientTransform="translate(429.332 457.615) scale(123.776 123.776)">
<stop stop-color="#DAA154"/>
<stop offset="1" stop-color="#DFB36A"/>
</radialGradient>
<radialGradient id="paint2_radial_7_267" cx="0" cy="0" r="1" gradientUnits="userSpaceOnUse" gradientTransform="translate(251.304 -13.9823) scale(82.2197 82.2197)">
<stop stop-color="#4C6C6E"/>
<stop offset="1" stop-color="#3B4C4F"/>
</radialGradient>
<linearGradient id="paint3_linear_7_267" x1="-5.72205e-06" y1="125.674" x2="163.932" y2="125.674" gradientUnits="userSpaceOnUse">
<stop stop-color="#59BDEF"/>
<stop offset="1" stop-color="#7BDAFF"/>
</linearGradient>
<linearGradient id="paint4_linear_7_267" x1="26.7809" y1="165.262" x2="170.073" y2="165.262" gradientUnits="userSpaceOnUse">
<stop stop-color="#2B237C"/>
<stop offset="1" stop-color="#180D5B"/>
</linearGradient>
<linearGradient id="paint5_linear_7_267" x1="226.076" y1="203.609" x2="46.8926" y2="121.313" gradientUnits="userSpaceOnUse">
<stop stop-color="#180D5B"/>
<stop offset="0.09" stop-color="#1A1660"/>
<stop offset="0.25" stop-color="#1E2D6E"/>
<stop offset="0.44" stop-color="#255385"/>
<stop offset="0.66" stop-color="#2F87A5"/>
<stop offset="0.9" stop-color="#3CCACE"/>
<stop offset="1" stop-color="#42E8E0"/>
</linearGradient>
<linearGradient id="paint6_linear_7_267" x1="173.221" y1="102.472" x2="144.361" y2="78.6618" gradientUnits="userSpaceOnUse">
<stop stop-color="#180D5B"/>
<stop offset="0.09" stop-color="#1A1660"/>
<stop offset="0.25" stop-color="#1E2D6E"/>
<stop offset="0.44" stop-color="#255385"/>
<stop offset="0.66" stop-color="#2F87A5"/>
<stop offset="0.9" stop-color="#3CCACE"/>
<stop offset="1" stop-color="#42E8E0"/>
</linearGradient>
<linearGradient id="paint7_linear_7_267" x1="99.337" y1="166.966" x2="66.6843" y2="189.458" gradientUnits="userSpaceOnUse">
<stop stop-color="#3A9BD5"/>
<stop offset="1" stop-color="#2573BA"/>
</linearGradient>
<linearGradient id="paint8_linear_7_267" x1="90.5147" y1="155.852" x2="53.7856" y2="171.631" gradientUnits="userSpaceOnUse">
<stop stop-color="#7BDAFF"/>
<stop offset="1" stop-color="#59BDEF"/>
</linearGradient>
<linearGradient id="paint9_linear_7_267" x1="74.3506" y1="172.584" x2="39.5077" y2="183.089" gradientUnits="userSpaceOnUse">
<stop stop-color="#2573BA"/>
<stop offset="1" stop-color="#0063AD"/>
</linearGradient>
<linearGradient id="paint10_linear_7_267" x1="270.956" y1="260.685" x2="226.763" y2="260.685" gradientUnits="userSpaceOnUse">
<stop stop-color="#3A9BD5"/>
<stop offset="1" stop-color="#2573BA"/>
</linearGradient>
<linearGradient id="paint11_linear_7_267" x1="239.378" y1="234.502" x2="75.2634" y2="234.502" gradientUnits="userSpaceOnUse">
<stop stop-color="#7BDAFF"/>
<stop offset="1" stop-color="#59BDEF"/>
</linearGradient>
<linearGradient id="paint12_linear_7_267" x1="141.157" y1="142.71" x2="108.504" y2="165.222" gradientUnits="userSpaceOnUse">
<stop stop-color="#3A9BD5"/>
<stop offset="1" stop-color="#2573BA"/>
</linearGradient>
<linearGradient id="paint13_linear_7_267" x1="132.355" y1="131.596" x2="95.6051" y2="147.395" gradientUnits="userSpaceOnUse">
<stop stop-color="#7BDAFF"/>
<stop offset="1" stop-color="#59BDEF"/>
</linearGradient>
<linearGradient id="paint14_linear_7_267" x1="116.17" y1="148.348" x2="81.3272" y2="158.854" gradientUnits="userSpaceOnUse">
<stop stop-color="#2573BA"/>
<stop offset="1" stop-color="#0063AD"/>
</linearGradient>
<linearGradient id="paint15_linear_7_267" x1="312.776" y1="236.429" x2="268.583" y2="236.429" gradientUnits="userSpaceOnUse">
<stop stop-color="#3A9BD5"/>
<stop offset="1" stop-color="#2573BA"/>
</linearGradient>
<linearGradient id="paint16_linear_7_267" x1="281.198" y1="210.266" x2="117.083" y2="210.266" gradientUnits="userSpaceOnUse">
<stop stop-color="#7BDAFF"/>
<stop offset="1" stop-color="#59BDEF"/>
</linearGradient>
<linearGradient id="paint17_linear_7_267" x1="182.976" y1="118.474" x2="150.324" y2="140.986" gradientUnits="userSpaceOnUse">
<stop stop-color="#3A9BD5"/>
<stop offset="1" stop-color="#2573BA"/>
</linearGradient>
<linearGradient id="paint18_linear_7_267" x1="174.174" y1="107.36" x2="137.425" y2="123.138" gradientUnits="userSpaceOnUse">
<stop stop-color="#7BDAFF"/>
<stop offset="1" stop-color="#59BDEF"/>
</linearGradient>
<linearGradient id="paint19_linear_7_267" x1="157.99" y1="124.092" x2="123.147" y2="134.597" gradientUnits="userSpaceOnUse">
<stop stop-color="#2573BA"/>
<stop offset="1" stop-color="#0063AD"/>
</linearGradient>
<linearGradient id="paint20_linear_7_267" x1="354.595" y1="212.193" x2="310.403" y2="212.193" gradientUnits="userSpaceOnUse">
<stop stop-color="#3A9BD5"/>
<stop offset="1" stop-color="#2573BA"/>
</linearGradient>
<linearGradient id="paint21_linear_7_267" x1="323.018" y1="186.03" x2="158.903" y2="186.03" gradientUnits="userSpaceOnUse">
<stop stop-color="#7BDAFF"/>
<stop offset="1" stop-color="#59BDEF"/>
</linearGradient>
<linearGradient id="paint22_linear_7_267" x1="423.49" y1="270.278" x2="290.203" y2="362.172" gradientUnits="userSpaceOnUse">
<stop stop-color="#3A9BD5"/>
<stop offset="1" stop-color="#2573BA"/>
</linearGradient>
<linearGradient id="paint23_linear_7_267" x1="387.532" y1="224.929" x2="237.573" y2="289.363" gradientUnits="userSpaceOnUse">
<stop stop-color="#7BDAFF"/>
<stop offset="1" stop-color="#59BDEF"/>
</linearGradient>
<linearGradient id="paint24_linear_7_267" x1="321.517" y1="293.236" x2="179.265" y2="336.131" gradientUnits="userSpaceOnUse">
<stop stop-color="#2573BA"/>
<stop offset="1" stop-color="#0063AD"/>
</linearGradient>
<linearGradient id="paint25_linear_7_267" x1="423.49" y1="194.548" x2="290.203" y2="286.422" gradientUnits="userSpaceOnUse">
<stop stop-color="#3A9BD5"/>
<stop offset="1" stop-color="#2573BA"/>
</linearGradient>
<linearGradient id="paint26_linear_7_267" x1="387.532" y1="149.2" x2="237.573" y2="213.613" gradientUnits="userSpaceOnUse">
<stop stop-color="#7BDAFF"/>
<stop offset="1" stop-color="#59BDEF"/>
</linearGradient>
<linearGradient id="paint27_linear_7_267" x1="321.517" y1="217.506" x2="179.265" y2="260.381" gradientUnits="userSpaceOnUse">
<stop stop-color="#2573BA"/>
<stop offset="1" stop-color="#0063AD"/>
</linearGradient>
<linearGradient id="paint28_linear_7_267" x1="416.838" y1="134.719" x2="297.727" y2="216.837" gradientUnits="userSpaceOnUse">
<stop stop-color="#3A9BD5"/>
<stop offset="1" stop-color="#2573BA"/>
</linearGradient>
<linearGradient id="paint29_linear_7_267" x1="387.532" y1="98.72" x2="237.573" y2="163.153" gradientUnits="userSpaceOnUse">
<stop stop-color="#7BDAFF"/>
<stop offset="1" stop-color="#59BDEF"/>
</linearGradient>
<linearGradient id="paint30_linear_7_267" x1="316.021" y1="154.757" x2="185.491" y2="194.102" gradientUnits="userSpaceOnUse">
<stop stop-color="#2573BA"/>
<stop offset="1" stop-color="#0063AD"/>
</linearGradient>
<linearGradient id="paint31_linear_7_267" x1="306.205" y1="288.754" x2="142.739" y2="338.037" gradientUnits="userSpaceOnUse">
<stop stop-color="#2573BA"/>
<stop offset="1" stop-color="#0063AD"/>
</linearGradient>
<linearGradient id="paint32_linear_7_267" x1="294.219" y1="306.825" x2="125.743" y2="334.468" gradientUnits="userSpaceOnUse">
<stop stop-color="#2573BA"/>
<stop offset="1" stop-color="#0063AD"/>
</linearGradient>
<linearGradient id="paint33_linear_7_267" x1="272.781" y1="236.895" x2="168.394" y2="281.27" gradientUnits="userSpaceOnUse">
<stop stop-color="#7BDAFF"/>
<stop offset="1" stop-color="#59BDEF"/>
</linearGradient>
<linearGradient id="paint34_linear_7_267" x1="301.54" y1="332.014" x2="210.113" y2="371.663" gradientUnits="userSpaceOnUse">
<stop stop-color="#3A9BD5"/>
<stop offset="1" stop-color="#2573BA"/>
</linearGradient>
<linearGradient id="paint35_linear_7_267" x1="204.495" y1="283.44" x2="165.656" y2="304.35" gradientUnits="userSpaceOnUse">
<stop stop-color="#7BDAFF"/>
<stop offset="1" stop-color="#59BDEF"/>
</linearGradient>
<linearGradient id="paint36_linear_7_267" x1="253.859" y1="359.616" x2="177.906" y2="359.616" gradientUnits="userSpaceOnUse">
<stop stop-color="#7BDAFF"/>
<stop offset="1" stop-color="#59BDEF"/>
</linearGradient>
<linearGradient id="paint37_linear_7_267" x1="273.653" y1="307.514" x2="110.187" y2="356.797" gradientUnits="userSpaceOnUse">
<stop stop-color="#2573BA"/>
<stop offset="1" stop-color="#0063AD"/>
</linearGradient>
<linearGradient id="paint38_linear_7_267" x1="261.667" y1="325.605" x2="93.1918" y2="353.228" gradientUnits="userSpaceOnUse">
<stop stop-color="#2573BA"/>
<stop offset="1" stop-color="#0063AD"/>
</linearGradient>
<linearGradient id="paint39_linear_7_267" x1="240.23" y1="255.655" x2="135.843" y2="300.03" gradientUnits="userSpaceOnUse">
<stop stop-color="#7BDAFF"/>
<stop offset="1" stop-color="#59BDEF"/>
</linearGradient>
<linearGradient id="paint40_linear_7_267" x1="268.989" y1="350.794" x2="177.561" y2="390.444" gradientUnits="userSpaceOnUse">
<stop stop-color="#3A9BD5"/>
<stop offset="1" stop-color="#2573BA"/>
</linearGradient>
<linearGradient id="paint41_linear_7_267" x1="171.944" y1="302.2" x2="133.105" y2="323.131" gradientUnits="userSpaceOnUse">
<stop stop-color="#7BDAFF"/>
<stop offset="1" stop-color="#59BDEF"/>
</linearGradient>
<linearGradient id="paint42_linear_7_267" x1="221.308" y1="378.397" x2="145.355" y2="378.397" gradientUnits="userSpaceOnUse">
<stop stop-color="#7BDAFF"/>
<stop offset="1" stop-color="#59BDEF"/>
</linearGradient>
<linearGradient id="paint43_linear_7_267" x1="309.328" y1="288.754" x2="472.794" y2="338.037" gradientUnits="userSpaceOnUse">
<stop stop-color="#2573BA"/>
<stop offset="1" stop-color="#0063AD"/>
</linearGradient>
<linearGradient id="paint44_linear_7_267" x1="321.314" y1="306.825" x2="489.789" y2="334.468" gradientUnits="userSpaceOnUse">
<stop stop-color="#2573BA"/>
<stop offset="1" stop-color="#0063AD"/>
</linearGradient>
<linearGradient id="paint45_linear_7_267" x1="342.751" y1="236.895" x2="447.138" y2="281.27" gradientUnits="userSpaceOnUse">
<stop stop-color="#7BDAFF"/>
<stop offset="1" stop-color="#59BDEF"/>
</linearGradient>
<linearGradient id="paint46_linear_7_267" x1="313.993" y1="332.014" x2="405.42" y2="371.663" gradientUnits="userSpaceOnUse">
<stop stop-color="#3A9BD5"/>
<stop offset="1" stop-color="#2573BA"/>
</linearGradient>
<linearGradient id="paint47_linear_7_267" x1="411.038" y1="283.44" x2="449.876" y2="304.35" gradientUnits="userSpaceOnUse">
<stop stop-color="#7BDAFF"/>
<stop offset="1" stop-color="#59BDEF"/>
</linearGradient>
<linearGradient id="paint48_linear_7_267" x1="361.674" y1="359.616" x2="437.626" y2="359.616" gradientUnits="userSpaceOnUse">
<stop stop-color="#7BDAFF"/>
<stop offset="1" stop-color="#59BDEF"/>
</linearGradient>
<linearGradient id="paint49_linear_7_267" x1="341.879" y1="307.514" x2="505.345" y2="356.797" gradientUnits="userSpaceOnUse">
<stop stop-color="#2573BA"/>
<stop offset="1" stop-color="#0063AD"/>
</linearGradient>
<linearGradient id="paint50_linear_7_267" x1="353.865" y1="325.605" x2="522.341" y2="353.228" gradientUnits="userSpaceOnUse">
<stop stop-color="#2573BA"/>
<stop offset="1" stop-color="#0063AD"/>
</linearGradient>
<linearGradient id="paint51_linear_7_267" x1="375.303" y1="255.655" x2="479.69" y2="300.03" gradientUnits="userSpaceOnUse">
<stop stop-color="#7BDAFF"/>
<stop offset="1" stop-color="#59BDEF"/>
</linearGradient>
<linearGradient id="paint52_linear_7_267" x1="346.544" y1="350.794" x2="437.971" y2="390.444" gradientUnits="userSpaceOnUse">
<stop stop-color="#3A9BD5"/>
<stop offset="1" stop-color="#2573BA"/>
</linearGradient>
<linearGradient id="paint53_linear_7_267" x1="443.589" y1="302.2" x2="482.427" y2="323.131" gradientUnits="userSpaceOnUse">
<stop stop-color="#7BDAFF"/>
<stop offset="1" stop-color="#59BDEF"/>
</linearGradient>
<linearGradient id="paint54_linear_7_267" x1="394.225" y1="378.397" x2="470.178" y2="378.397" gradientUnits="userSpaceOnUse">
<stop stop-color="#7BDAFF"/>
<stop offset="1" stop-color="#59BDEF"/>
</linearGradient>
<linearGradient id="paint55_linear_7_267" x1="441.845" y1="36.0105" x2="379.886" y2="-11.8733" gradientUnits="userSpaceOnUse">
<stop stop-color="#59BDEF"/>
<stop offset="1" stop-color="#7BDAFF"/>
</linearGradient>
<linearGradient id="paint56_linear_7_267" x1="442.109" y1="58.8471" x2="476.769" y2="58.8471" gradientUnits="userSpaceOnUse">
<stop stop-color="#2573BA"/>
<stop offset="1" stop-color="#0063AD"/>
</linearGradient>
<linearGradient id="paint57_linear_7_267" x1="398.464" y1="56.2512" x2="442.109" y2="56.2512" gradientUnits="userSpaceOnUse">
<stop stop-color="#3A9BD5"/>
<stop offset="1" stop-color="#2573BA"/>
</linearGradient>
<linearGradient id="paint58_linear_7_267" x1="406.414" y1="32.1977" x2="425.296" y2="32.1977" gradientUnits="userSpaceOnUse">
<stop stop-color="#2573BA"/>
<stop offset="1" stop-color="#0063AD"/>
</linearGradient>
<linearGradient id="paint59_linear_7_267" x1="418.4" y1="39.1338" x2="437.302" y2="39.1338" gradientUnits="userSpaceOnUse">
<stop stop-color="#2573BA"/>
<stop offset="1" stop-color="#0063AD"/>
</linearGradient>
<linearGradient id="paint60_linear_7_267" x1="430.427" y1="46.0699" x2="449.329" y2="46.0699" gradientUnits="userSpaceOnUse">
<stop stop-color="#2573BA"/>
<stop offset="1" stop-color="#0063AD"/>
</linearGradient>
<clipPath id="clip0_7_267">
<rect width="538.16" height="572.07" fill="white" transform="translate(0 0.964966)"/>
</clipPath>
</defs>
</svg>
